<?xml version="1.0" encoding="us-ascii" standalone="no"?><svg xmlns="http://www.w3.org/2000/svg" xmlns:xlink="http://www.w3.org/1999/xlink" contentStyleType="text/css" height="587px" preserveAspectRatio="none" style="width:657px;height:587px;background:#FFFFFF;" version="1.1" viewBox="0 0 657 587" width="657px" zoomAndPan="magnify"><defs/><g><line style="stroke:#181818;stroke-width:0.5;stroke-dasharray:5.0,5.0;" x1="91.5" x2="91.5" y1="52.5938" y2="535.5859"/><line style="stroke:#181818;stroke-width:0.5;stroke-dasharray:5.0,5.0;" x1="244.5" x2="244.5" y1="52.5938" y2="535.5859"/><line style="stroke:#181818;stroke-width:0.5;stroke-dasharray:5.0,5.0;" x1="393" x2="393" y1="52.5938" y2="535.5859"/><line style="stroke:#181818;stroke-width:0.5;stroke-dasharray:5.0,5.0;" x1="466" x2="466" y1="52.5938" y2="535.5859"/><line style="stroke:#181818;stroke-width:0.5;stroke-dasharray:5.0,5.0;" x1="540" x2="540" y1="52.5938" y2="535.5859"/><line style="stroke:#181818;stroke-width:0.5;stroke-dasharray:5.0,5.0;" x1="613" x2="613" y1="52.5938" y2="535.5859"/><rect fill="#E2E2F0" height="30.2969" rx="2.5" ry="2.5" style="stroke:#181818;stroke-width:0.5;" width="99" x="42.5" y="21.2969"/><text fill="#000000" font-family="sans-serif" font-size="14" lengthAdjust="spacing" textLength="85" x="49.5" y="41.292">utililsateur1</text><rect fill="#E2E2F0" height="30.2969" rx="2.5" ry="2.5" style="stroke:#181818;stroke-width:0.5;" width="99" x="42.5" y="534.5859"/><text fill="#000000" font-family="sans-serif" font-size="14" lengthAdjust="spacing" textLength="85" x="49.5" y="554.5811">utililsateur1</text><rect fill="#FF7F50" height="46.5938" rx="2.5" ry="2.5" style="stroke:#181818;stroke-width:0.5;" width="85" x="202.5" y="5"/><text fill="#000000" font-family="sans-serif" font-size="14" lengthAdjust="spacing" textLength="29" x="230.5" y="24.9951">Site</text><text fill="#000000" font-family="sans-serif" font-size="14" lengthAdjust="spacing" textLength="71" x="209.5" y="41.292">Sademaar</text><rect fill="#FF7F50" height="46.5938" rx="2.5" ry="2.5" style="stroke:#181818;stroke-width:0.5;" width="85" x="202.5" y="534.5859"/><text fill="#000000" font-family="sans-serif" font-size="14" lengthAdjust="spacing" textLength="29" x="230.5" y="554.5811">Site</text><text fill="#000000" font-family="sans-serif" font-size="14" lengthAdjust="spacing" textLength="71" x="209.5" y="570.8779">Sademaar</text><rect fill="#D2B48C" height="46.5938" rx="2.5" ry="2.5" style="stroke:#181818;stroke-width:0.5;" width="64" x="361" y="5"/><text fill="#000000" font-family="sans-serif" font-size="14" lengthAdjust="spacing" textLength="47" x="369.5" y="24.9951">Repair</text><text fill="#000000" font-family="sans-serif" font-size="14" lengthAdjust="spacing" textLength="46" x="372" y="41.292">Caf&#233; 1</text><rect fill="#D2B48C" height="46.5938" rx="2.5" ry="2.5" style="stroke:#181818;stroke-width:0.5;" width="64" x="361" y="534.5859"/><text fill="#000000" font-family="sans-serif" font-size="14" lengthAdjust="spacing" textLength="47" x="369.5" y="554.5811">Repair</text><text fill="#000000" font-family="sans-serif" font-size="14" lengthAdjust="spacing" textLength="46" x="372" y="570.8779">Caf&#233; 1</text><rect fill="#D2B48C" height="46.5938" rx="2.5" ry="2.5" style="stroke:#181818;stroke-width:0.5;" width="63" x="435" y="5"/><text fill="#000000" font-family="sans-serif" font-size="14" lengthAdjust="spacing" textLength="47" x="443" y="24.9951">Repair</text><text fill="#000000" font-family="sans-serif" font-size="14" lengthAdjust="spacing" textLength="45" x="446" y="41.292">Caf&#233; 2</text><rect fill="#D2B48C" height="46.5938" rx="2.5" ry="2.5" style="stroke:#181818;stroke-width:0.5;" width="63" x="435" y="534.5859"/><text fill="#000000" font-family="sans-serif" font-size="14" lengthAdjust="spacing" textLength="47" x="443" y="554.5811">Repair</text><text fill="#000000" font-family="sans-serif" font-size="14" lengthAdjust="spacing" textLength="45" x="446" y="570.8779">Caf&#233; 2</text><rect fill="#D2B48C" height="46.5938" rx="2.5" ry="2.5" style="stroke:#181818;stroke-width:0.5;" width="64" x="508" y="5"/><text fill="#000000" font-family="sans-serif" font-size="14" lengthAdjust="spacing" textLength="47" x="516.5" y="24.9951">Repair</text><text fill="#000000" font-family="sans-serif" font-size="14" lengthAdjust="spacing" textLength="46" x="519" y="41.292">Caf&#233; 3</text><rect fill="#D2B48C" height="46.5938" rx="2.5" ry="2.5" style="stroke:#181818;stroke-width:0.5;" width="64" x="508" y="534.5859"/><text fill="#000000" font-family="sans-serif" font-size="14" lengthAdjust="spacing" textLength="47" x="516.5" y="554.5811">Repair</text><text fill="#000000" font-family="sans-serif" font-size="14" lengthAdjust="spacing" textLength="46" x="519" y="570.8779">Caf&#233; 3</text><rect fill="#D2B48C" height="46.5938" rx="2.5" ry="2.5" style="stroke:#181818;stroke-width:0.5;" width="63" x="582" y="5"/><text fill="#000000" font-family="sans-serif" font-size="14" lengthAdjust="spacing" textLength="47" x="590" y="24.9951">Repair</text><text fill="#000000" font-family="sans-serif" font-size="14" lengthAdjust="spacing" textLength="45" x="593" y="41.292">Caf&#233; 4</text><rect fill="#D2B48C" height="46.5938" rx="2.5" ry="2.5" style="stroke:#181818;stroke-width:0.5;" width="63" x="582" y="534.5859"/><text fill="#000000" font-family="sans-serif" font-size="14" lengthAdjust="spacing" textLength="47" x="590" y="554.5811">Repair</text><text fill="#000000" font-family="sans-serif" font-size="14" lengthAdjust="spacing" textLength="45" x="593" y="570.8779">Caf&#233; 4</text><rect fill="#EEEEEE" height="3" style="stroke:#EEEEEE;stroke-width:1.0;" width="650" x="0" y="83.1602"/><line style="stroke:#000000;stroke-width:1.0;" x1="0" x2="650" y1="83.1602" y2="83.1602"/><line style="stroke:#000000;stroke-width:1.0;" x1="0" x2="650" y1="86.1602" y2="86.1602"/><rect fill="#EEEEEE" height="23.1328" style="stroke:#000000;stroke-width:2.0;" width="137" x="256.5" y="72.5938"/><text fill="#000000" font-family="sans-serif" font-size="13" font-weight="bold" lengthAdjust="spacing" textLength="123" x="262.5" y="88.6606">DECLARE PANNE</text><polygon fill="#181818" points="233,153.125,243,157.125,233,161.125,237,157.125" style="stroke:#181818;stroke-width:1.0;"/><line style="stroke:#181818;stroke-width:1.0;" x1="92" x2="239" y1="157.125" y2="157.125"/><text fill="#000000" font-family="sans-serif" font-size="13" lengthAdjust="spacing" textLength="70" x="99" y="121.7935">description</text><text fill="#000000" font-family="sans-serif" font-size="13" lengthAdjust="spacing" textLength="129" x="99" y="136.9263">du produit en panne</text><text fill="#000000" font-family="sans-serif" font-size="13" lengthAdjust="spacing" textLength="76" x="103" y="152.0591">(Aspirateur)</text><line style="stroke:#181818;stroke-width:1.0;" x1="203" x2="245" y1="201.3906" y2="201.3906"/><line style="stroke:#181818;stroke-width:1.0;" x1="203" x2="203" y1="201.3906" y2="214.3906"/><line style="stroke:#181818;stroke-width:1.0;" x1="203" x2="244" y1="214.3906" y2="214.3906"/><polygon fill="#181818" points="236,210.3906,246,214.3906,236,218.3906,240,214.3906" style="stroke:#181818;stroke-width:1.0;"/><text fill="#000000" font-family="sans-serif" font-size="13" lengthAdjust="spacing" textLength="34" x="113" y="181.1919">choix</text><text fill="#000000" font-family="sans-serif" font-size="13" lengthAdjust="spacing" textLength="132" x="113" y="196.3247">repair caf&#233;s adapt&#233;s</text><polygon fill="#181818" points="381,254.6563,391,258.6563,381,262.6563,385,258.6563" style="stroke:#181818;stroke-width:1.0;"/><line style="stroke:#181818;stroke-width:1.0;" x1="245" x2="387" y1="258.6563" y2="258.6563"/><text fill="#000000" font-family="sans-serif" font-size="13" lengthAdjust="spacing" textLength="124" x="252" y="238.4575">dmd-rdz-vs-produit</text><text fill="#000000" font-family="sans-serif" font-size="13" lengthAdjust="spacing" textLength="76" x="252" y="253.5903">(Aspirateur)</text><polygon fill="#181818" points="454.5,268.6563,464.5,272.6563,454.5,276.6563,458.5,272.6563" style="stroke:#181818;stroke-width:1.0;"/><line style="stroke:#181818;stroke-width:1.0;" x1="245" x2="460.5" y1="272.6563" y2="272.6563"/><polygon fill="#181818" points="528,282.6563,538,286.6563,528,290.6563,532,286.6563" style="stroke:#181818;stroke-width:1.0;"/><line style="stroke:#181818;stroke-width:1.0;" x1="245" x2="534" y1="286.6563" y2="286.6563"/><polygon fill="#181818" points="601.5,296.6563,611.5,300.6563,601.5,304.6563,605.5,300.6563" style="stroke:#181818;stroke-width:1.0;"/><line style="stroke:#181818;stroke-width:1.0;" x1="245" x2="607.5" y1="300.6563" y2="300.6563"/><polygon fill="#181818" points="103,325.7891,93,329.7891,103,333.7891,99,329.7891" style="stroke:#181818;stroke-width:1.0;"/><line style="stroke:#181818;stroke-width:1.0;stroke-dasharray:2.0,2.0;" x1="97" x2="392" y1="329.7891" y2="329.7891"/><text fill="#000000" font-family="sans-serif" font-size="13" lengthAdjust="spacing" textLength="140" x="109" y="324.7231">creneau (date, heure)</text><polygon fill="#181818" points="103,354.9219,93,358.9219,103,362.9219,99,358.9219" style="stroke:#181818;stroke-width:1.0;"/><line style="stroke:#181818;stroke-width:1.0;stroke-dasharray:2.0,2.0;" x1="97" x2="465.5" y1="358.9219" y2="358.9219"/><text fill="#000000" font-family="sans-serif" font-size="13" lengthAdjust="spacing" textLength="244" x="109" y="353.856">refus (ne g&#232;re pas ce type de produit)</text><polygon fill="#181818" points="103,384.0547,93,388.0547,103,392.0547,99,388.0547" style="stroke:#181818;stroke-width:1.0;"/><line style="stroke:#181818;stroke-width:1.0;stroke-dasharray:2.0,2.0;" x1="97" x2="539" y1="388.0547" y2="388.0547"/><text fill="#000000" font-family="sans-serif" font-size="13" lengthAdjust="spacing" textLength="140" x="109" y="382.9888">creneau (date, heure)</text><polygon fill="#181818" points="103,413.1875,93,417.1875,103,421.1875,99,417.1875" style="stroke:#181818;stroke-width:1.0;"/><line style="stroke:#181818;stroke-width:1.0;stroke-dasharray:2.0,2.0;" x1="97" x2="612.5" y1="417.1875" y2="417.1875"/><text fill="#000000" font-family="sans-serif" font-size="13" lengthAdjust="spacing" textLength="412" x="109" y="412.1216">refus (pas de cr&#233;neau disponible dans une en temps raisonable)</text><line style="stroke:#181818;stroke-width:1.0;" x1="50" x2="92" y1="446.3203" y2="446.3203"/><line style="stroke:#181818;stroke-width:1.0;" x1="50" x2="50" y1="446.3203" y2="459.3203"/><line style="stroke:#181818;stroke-width:1.0;" x1="50" x2="91" y1="459.3203" y2="459.3203"/><polygon fill="#181818" points="83,455.3203,93,459.3203,83,463.3203,87,459.3203" style="stroke:#181818;stroke-width:1.0;"/><text fill="#000000" font-family="sans-serif" font-size="13" lengthAdjust="spacing" textLength="78" x="14" y="441.2544">choix rdz-vs</text><polygon fill="#181818" points="528,484.4531,538,488.4531,528,492.4531,532,488.4531" style="stroke:#181818;stroke-width:1.0;"/><line style="stroke:#181818;stroke-width:1.0;" x1="92" x2="534" y1="488.4531" y2="488.4531"/><text fill="#000000" font-family="sans-serif" font-size="13" lengthAdjust="spacing" textLength="119" x="99" y="483.3872">acceptation rdz-vs</text><polygon fill="#181818" points="103,513.5859,93,517.5859,103,521.5859,99,517.5859" style="stroke:#181818;stroke-width:1.0;"/><line style="stroke:#181818;stroke-width:1.0;" x1="97" x2="539" y1="517.5859" y2="517.5859"/><text fill="#000000" font-family="sans-serif" font-size="13" lengthAdjust="spacing" textLength="81" x="109" y="512.52">confirmation</text><!--SRC=[ZPB1JiCm38RlVGgBNJQ97hhsD36aQUo69hHTUp69noArQUIa27WYzXnxCToq4vj0WrlTVFx_-7SSSZ3AEBG1sc0gKtaCr786wA7rn5dYpf2RhGbKsYrggX7vfgEy_8AHQXWhk8GtvD1mQM69k-C1ieYpoc0Kq5vdfmCxZUnLD1_G_6-q6D2YHvFv_66rV5niLl2qMAzNytaIHuRqFaur0qrUiN71D1PAgrjmtEZM120Buc0b2nWll3CSKviaCOoxj6zN-yQybPRZ9K1rL_206bsGZnuL9mb4Z6gTilv8NtqwM9Jsft2afpCug_ABgf2g2pYLAeuo0yLa2LiOQr6wXRseqIJfaZs3c7QjXx4bU3b-Cibi7XH1U7Sa6Pocxjho_sWNlsXtaYAb-7Y8FTfurrZpN8a3MdbiOYwf1ggTh0YDRopAuMHOYMHwCkrIXJwixttrKQ1Iv0B6VGr4lBASdxeRkpDSH-GB]--></g></svg>