<?xml version="1.0" encoding="us-ascii" standalone="no"?><svg xmlns="http://www.w3.org/2000/svg" xmlns:xlink="http://www.w3.org/1999/xlink" contentStyleType="text/css" height="1580px" preserveAspectRatio="none" style="width:1637px;height:1580px;background:#FFFFFF;" version="1.1" viewBox="0 0 1637 1580" width="1637px" zoomAndPan="magnify"><defs/><g><rect fill="#FFFFFF" height="71.2656" style="stroke:#181818;stroke-width:1.0;" width="10" x="299" y="143.1563"/><rect fill="#FFFFFF" height="28" style="stroke:#181818;stroke-width:1.0;" width="10" x="299" y="530.8828"/><rect fill="#FFFFFF" height="28" style="stroke:#181818;stroke-width:1.0;" width="10" x="299" y="738.6797"/><rect fill="#FFFFFF" height="30" style="stroke:#181818;stroke-width:1.0;" width="10" x="299" y="900.0156"/><rect fill="#FFFFFF" height="71.2656" style="stroke:#181818;stroke-width:1.0;" width="10" x="749.5" y="143.1563"/><rect fill="#FFFFFF" height="30" style="stroke:#181818;stroke-width:1.0;" width="10" x="749.5" y="900.0156"/><rect fill="#EFEFFF" height="250.1953" style="stroke:#000000;stroke-width:1.5;" width="899" x="267.5" y="229.4219"/><rect fill="#BBFFDD" height="915" style="stroke:#000000;stroke-width:1.5;" width="1514.5" x="10" y="580.8828"/><rect fill="#EEFFEE" height="527.4688" style="stroke:#000000;stroke-width:1.5;" width="549" x="257.5" y="692.4141"/><rect fill="#DDFFDD" height="438.2031" style="stroke:none;stroke-width:1.0;" width="549" x="257.5" y="781.6797"/><rect fill="#FEFFEE" height="409.3984" style="stroke:#000000;stroke-width:1.5;" width="529" x="267.5" y="803.4844"/><rect fill="#ECF9EA" height="260.8672" style="stroke:none;stroke-width:1.0;" width="529" x="267.5" y="952.0156"/><rect fill="#FFEAEA" height="269" style="stroke:none;stroke-width:1.0;" width="1514.5" x="10" y="1226.8828"/><line style="stroke:#181818;stroke-width:0.5;stroke-dasharray:5.0,5.0;" x1="303.5" x2="303.5" y1="68.8906" y2="1512.8828"/><line style="stroke:#181818;stroke-width:0.5;stroke-dasharray:5.0,5.0;" x1="522.5" x2="522.5" y1="68.8906" y2="1512.8828"/><line style="stroke:#181818;stroke-width:0.5;stroke-dasharray:5.0,5.0;" x1="607.5" x2="607.5" y1="68.8906" y2="1512.8828"/><line style="stroke:#181818;stroke-width:0.5;stroke-dasharray:5.0,5.0;" x1="680.5" x2="680.5" y1="68.8906" y2="1512.8828"/><line style="stroke:#181818;stroke-width:0.5;stroke-dasharray:5.0,5.0;" x1="754.5" x2="754.5" y1="68.8906" y2="1512.8828"/><line style="stroke:#181818;stroke-width:0.5;stroke-dasharray:5.0,5.0;" x1="877.5" x2="877.5" y1="68.8906" y2="1512.8828"/><line style="stroke:#181818;stroke-width:0.5;stroke-dasharray:5.0,5.0;" x1="992.5" x2="992.5" y1="68.8906" y2="1512.8828"/><line style="stroke:#181818;stroke-width:0.5;stroke-dasharray:5.0,5.0;" x1="1105.5" x2="1105.5" y1="68.8906" y2="1512.8828"/><line style="stroke:#181818;stroke-width:0.5;stroke-dasharray:5.0,5.0;" x1="1223.5" x2="1223.5" y1="68.8906" y2="1512.8828"/><line style="stroke:#181818;stroke-width:0.5;stroke-dasharray:5.0,5.0;" x1="1346.5" x2="1346.5" y1="68.8906" y2="1512.8828"/><line style="stroke:#181818;stroke-width:0.5;stroke-dasharray:5.0,5.0;" x1="1463.5" x2="1463.5" y1="68.8906" y2="1512.8828"/><line style="stroke:#181818;stroke-width:0.5;stroke-dasharray:5.0,5.0;" x1="1574.5" x2="1574.5" y1="68.8906" y2="1512.8828"/><rect fill="#E2E2F0" height="30.2969" rx="2.5" ry="2.5" style="stroke:#181818;stroke-width:0.5;" width="53" x="277.5" y="37.5938"/><text fill="#000000" font-family="sans-serif" font-size="14" lengthAdjust="spacing" textLength="39" x="284.5" y="57.5889">user1</text><rect fill="#E2E2F0" height="30.2969" rx="2.5" ry="2.5" style="stroke:#181818;stroke-width:0.5;" width="53" x="277.5" y="1511.8828"/><text fill="#000000" font-family="sans-serif" font-size="14" lengthAdjust="spacing" textLength="39" x="284.5" y="1531.8779">user1</text><rect fill="#FF7F50" height="46.5938" rx="2.5" ry="2.5" style="stroke:#181818;stroke-width:0.5;" width="85" x="480.5" y="21.2969"/><text fill="#000000" font-family="sans-serif" font-size="14" lengthAdjust="spacing" textLength="29" x="508.5" y="41.292">Site</text><text fill="#000000" font-family="sans-serif" font-size="14" lengthAdjust="spacing" textLength="71" x="487.5" y="57.5889">Sademaar</text><rect fill="#FF7F50" height="46.5938" rx="2.5" ry="2.5" style="stroke:#181818;stroke-width:0.5;" width="85" x="480.5" y="1511.8828"/><text fill="#000000" font-family="sans-serif" font-size="14" lengthAdjust="spacing" textLength="29" x="508.5" y="1531.8779">Site</text><text fill="#000000" font-family="sans-serif" font-size="14" lengthAdjust="spacing" textLength="71" x="487.5" y="1548.1748">Sademaar</text><rect fill="#D2B48C" height="46.5938" rx="2.5" ry="2.5" style="stroke:#181818;stroke-width:0.5;" width="64" x="575.5" y="21.2969"/><text fill="#000000" font-family="sans-serif" font-size="14" lengthAdjust="spacing" textLength="47" x="584" y="41.292">Repair</text><text fill="#000000" font-family="sans-serif" font-size="14" lengthAdjust="spacing" textLength="46" x="586.5" y="57.5889">Caf&#233; 1</text><rect fill="#D2B48C" height="46.5938" rx="2.5" ry="2.5" style="stroke:#181818;stroke-width:0.5;" width="64" x="575.5" y="1511.8828"/><text fill="#000000" font-family="sans-serif" font-size="14" lengthAdjust="spacing" textLength="47" x="584" y="1531.8779">Repair</text><text fill="#000000" font-family="sans-serif" font-size="14" lengthAdjust="spacing" textLength="46" x="586.5" y="1548.1748">Caf&#233; 1</text><rect fill="#D2B48C" height="46.5938" rx="2.5" ry="2.5" style="stroke:#181818;stroke-width:0.5;" width="63" x="649.5" y="21.2969"/><text fill="#000000" font-family="sans-serif" font-size="14" lengthAdjust="spacing" textLength="47" x="657.5" y="41.292">Repair</text><text fill="#000000" font-family="sans-serif" font-size="14" lengthAdjust="spacing" textLength="45" x="660.5" y="57.5889">Caf&#233; 2</text><rect fill="#D2B48C" height="46.5938" rx="2.5" ry="2.5" style="stroke:#181818;stroke-width:0.5;" width="63" x="649.5" y="1511.8828"/><text fill="#000000" font-family="sans-serif" font-size="14" lengthAdjust="spacing" textLength="47" x="657.5" y="1531.8779">Repair</text><text fill="#000000" font-family="sans-serif" font-size="14" lengthAdjust="spacing" textLength="45" x="660.5" y="1548.1748">Caf&#233; 2</text><rect fill="#D2B48C" height="46.5938" rx="2.5" ry="2.5" style="stroke:#181818;stroke-width:0.5;" width="64" x="722.5" y="21.2969"/><text fill="#000000" font-family="sans-serif" font-size="14" lengthAdjust="spacing" textLength="47" x="731" y="41.292">Repair</text><text fill="#000000" font-family="sans-serif" font-size="14" lengthAdjust="spacing" textLength="46" x="733.5" y="57.5889">Caf&#233; 3</text><rect fill="#D2B48C" height="46.5938" rx="2.5" ry="2.5" style="stroke:#181818;stroke-width:0.5;" width="64" x="722.5" y="1511.8828"/><text fill="#000000" font-family="sans-serif" font-size="14" lengthAdjust="spacing" textLength="47" x="731" y="1531.8779">Repair</text><text fill="#000000" font-family="sans-serif" font-size="14" lengthAdjust="spacing" textLength="46" x="733.5" y="1548.1748">Caf&#233; 3</text><rect fill="#008000" height="46.5938" rx="2.5" ry="2.5" style="stroke:#181818;stroke-width:0.5;" width="106" x="824.5" y="21.2969"/><text fill="#000000" font-family="sans-serif" font-size="14" lengthAdjust="spacing" textLength="46" x="854.5" y="41.292">Pi&#232;ces</text><text fill="#000000" font-family="sans-serif" font-size="14" lengthAdjust="spacing" textLength="88" x="835.5" y="57.5889">d&#233;tach&#233;es 1</text><rect fill="#008000" height="46.5938" rx="2.5" ry="2.5" style="stroke:#181818;stroke-width:0.5;" width="106" x="824.5" y="1511.8828"/><text fill="#000000" font-family="sans-serif" font-size="14" lengthAdjust="spacing" textLength="46" x="854.5" y="1531.8779">Pi&#232;ces</text><text fill="#000000" font-family="sans-serif" font-size="14" lengthAdjust="spacing" textLength="88" x="835.5" y="1548.1748">d&#233;tach&#233;es 1</text><rect fill="#008000" height="46.5938" rx="2.5" ry="2.5" style="stroke:#181818;stroke-width:0.5;" width="105" x="940.5" y="21.2969"/><text fill="#000000" font-family="sans-serif" font-size="14" lengthAdjust="spacing" textLength="46" x="970" y="41.292">Pi&#232;ces</text><text fill="#000000" font-family="sans-serif" font-size="14" lengthAdjust="spacing" textLength="87" x="951.5" y="57.5889">d&#233;tach&#233;es 2</text><rect fill="#008000" height="46.5938" rx="2.5" ry="2.5" style="stroke:#181818;stroke-width:0.5;" width="105" x="940.5" y="1511.8828"/><text fill="#000000" font-family="sans-serif" font-size="14" lengthAdjust="spacing" textLength="46" x="970" y="1531.8779">Pi&#232;ces</text><text fill="#000000" font-family="sans-serif" font-size="14" lengthAdjust="spacing" textLength="87" x="951.5" y="1548.1748">d&#233;tach&#233;es 2</text><rect fill="#90EE90" height="62.8906" rx="2.5" ry="2.5" style="stroke:#181818;stroke-width:0.5;" width="101" x="1055.5" y="5"/><text fill="#000000" font-family="sans-serif" font-size="14" lengthAdjust="spacing" textLength="46" x="1083" y="24.9951">Pi&#232;ces</text><text fill="#000000" font-family="sans-serif" font-size="14" lengthAdjust="spacing" textLength="75" x="1070.5" y="41.292">d&#233;tach&#233;es</text><text fill="#000000" font-family="sans-serif" font-size="14" lengthAdjust="spacing" textLength="87" x="1062.5" y="57.5889">2nde main 1</text><rect fill="#90EE90" height="62.8906" rx="2.5" ry="2.5" style="stroke:#181818;stroke-width:0.5;" width="101" x="1055.5" y="1511.8828"/><text fill="#000000" font-family="sans-serif" font-size="14" lengthAdjust="spacing" textLength="46" x="1083" y="1531.8779">Pi&#232;ces</text><text fill="#000000" font-family="sans-serif" font-size="14" lengthAdjust="spacing" textLength="75" x="1070.5" y="1548.1748">d&#233;tach&#233;es</text><text fill="#000000" font-family="sans-serif" font-size="14" lengthAdjust="spacing" textLength="87" x="1062.5" y="1564.4717">2nde main 1</text><rect fill="#00FFFF" height="30.2969" rx="2.5" ry="2.5" style="stroke:#181818;stroke-width:0.5;" width="114" x="1166.5" y="37.5938"/><text fill="#000000" font-family="sans-serif" font-size="14" lengthAdjust="spacing" textLength="100" x="1173.5" y="57.5889">Distributeur 1</text><rect fill="#00FFFF" height="30.2969" rx="2.5" ry="2.5" style="stroke:#181818;stroke-width:0.5;" width="114" x="1166.5" y="1511.8828"/><text fill="#000000" font-family="sans-serif" font-size="14" lengthAdjust="spacing" textLength="100" x="1173.5" y="1531.8779">Distributeur 1</text><rect fill="#00FFFF" height="30.2969" rx="2.5" ry="2.5" style="stroke:#181818;stroke-width:0.5;" width="113" x="1290.5" y="37.5938"/><text fill="#000000" font-family="sans-serif" font-size="14" lengthAdjust="spacing" textLength="99" x="1297.5" y="57.5889">Distributeur 2</text><rect fill="#00FFFF" height="30.2969" rx="2.5" ry="2.5" style="stroke:#181818;stroke-width:0.5;" width="113" x="1290.5" y="1511.8828"/><text fill="#000000" font-family="sans-serif" font-size="14" lengthAdjust="spacing" textLength="99" x="1297.5" y="1531.8779">Distributeur 2</text><rect fill="#E0FFFF" height="46.5938" rx="2.5" ry="2.5" style="stroke:#181818;stroke-width:0.5;" width="101" x="1413.5" y="21.2969"/><text fill="#000000" font-family="sans-serif" font-size="14" lengthAdjust="spacing" textLength="87" x="1420.5" y="41.292">Distributeur</text><text fill="#000000" font-family="sans-serif" font-size="14" lengthAdjust="spacing" textLength="87" x="1420.5" y="57.5889">2nde main 1</text><rect fill="#E0FFFF" height="46.5938" rx="2.5" ry="2.5" style="stroke:#181818;stroke-width:0.5;" width="101" x="1413.5" y="1511.8828"/><text fill="#000000" font-family="sans-serif" font-size="14" lengthAdjust="spacing" textLength="87" x="1420.5" y="1531.8779">Distributeur</text><text fill="#000000" font-family="sans-serif" font-size="14" lengthAdjust="spacing" textLength="87" x="1420.5" y="1548.1748">2nde main 1</text><rect fill="#E0FFFF" height="46.5938" rx="2.5" ry="2.5" style="stroke:#181818;stroke-width:0.5;" width="101" x="1524.5" y="21.2969"/><text fill="#000000" font-family="sans-serif" font-size="14" lengthAdjust="spacing" textLength="87" x="1531.5" y="41.292">Distributeur</text><text fill="#000000" font-family="sans-serif" font-size="14" lengthAdjust="spacing" textLength="86" x="1532" y="57.5889">2nde main 2</text><rect fill="#E0FFFF" height="46.5938" rx="2.5" ry="2.5" style="stroke:#181818;stroke-width:0.5;" width="101" x="1524.5" y="1511.8828"/><text fill="#000000" font-family="sans-serif" font-size="14" lengthAdjust="spacing" textLength="87" x="1531.5" y="1531.8779">Distributeur</text><text fill="#000000" font-family="sans-serif" font-size="14" lengthAdjust="spacing" textLength="86" x="1532" y="1548.1748">2nde main 2</text><rect fill="#FFFFFF" height="71.2656" style="stroke:#181818;stroke-width:1.0;" width="10" x="299" y="143.1563"/><rect fill="#FFFFFF" height="28" style="stroke:#181818;stroke-width:1.0;" width="10" x="299" y="530.8828"/><rect fill="#FFFFFF" height="28" style="stroke:#181818;stroke-width:1.0;" width="10" x="299" y="738.6797"/><rect fill="#FFFFFF" height="30" style="stroke:#181818;stroke-width:1.0;" width="10" x="299" y="900.0156"/><rect fill="#FFFFFF" height="71.2656" style="stroke:#181818;stroke-width:1.0;" width="10" x="749.5" y="143.1563"/><rect fill="#FFFFFF" height="30" style="stroke:#181818;stroke-width:1.0;" width="10" x="749.5" y="900.0156"/><rect fill="#EEEEEE" height="3" style="stroke:#EEEEEE;stroke-width:1.0;" width="1630.5" x="0" y="99.457"/><line style="stroke:#000000;stroke-width:1.0;" x1="0" x2="1630.5" y1="99.457" y2="99.457"/><line style="stroke:#000000;stroke-width:1.0;" x1="0" x2="1630.5" y1="102.457" y2="102.457"/><rect fill="#EEEEEE" height="23.1328" style="stroke:#000000;stroke-width:2.0;" width="429" x="600.75" y="88.8906"/><text fill="#000000" font-family="sans-serif" font-size="13" font-weight="bold" lengthAdjust="spacing" textLength="415" x="606.75" y="104.9575">ANALYSE :  PANNE REPARABLE PAR/AVEC LA PERSONNE</text><polygon fill="#181818" points="737.5,139.1563,747.5,143.1563,737.5,147.1563,741.5,143.1563" style="stroke:#181818;stroke-width:1.0;"/><line style="stroke:#181818;stroke-width:1.0;" x1="309" x2="743.5" y1="143.1563" y2="143.1563"/><text fill="#000000" font-family="sans-serif" font-size="13" lengthAdjust="spacing" textLength="130" x="316" y="138.0903">presentation produit</text><line style="stroke:#181818;stroke-width:1.0;" x1="759.5" x2="801.5" y1="172.2891" y2="172.2891"/><line style="stroke:#181818;stroke-width:1.0;" x1="801.5" x2="801.5" y1="172.2891" y2="185.2891"/><line style="stroke:#181818;stroke-width:1.0;" x1="760.5" x2="801.5" y1="185.2891" y2="185.2891"/><polygon fill="#181818" points="770.5,181.2891,760.5,185.2891,770.5,189.2891,766.5,185.2891" style="stroke:#181818;stroke-width:1.0;"/><text fill="#000000" font-family="sans-serif" font-size="13" lengthAdjust="spacing" textLength="99" x="766.5" y="167.2231">analyse produit</text><polygon fill="#181818" points="315,210.4219,305,214.4219,315,218.4219,311,214.4219" style="stroke:#181818;stroke-width:1.0;"/><line style="stroke:#181818;stroke-width:1.0;" x1="309" x2="753.5" y1="214.4219" y2="214.4219"/><text fill="#000000" font-family="sans-serif" font-size="13" lengthAdjust="spacing" textLength="109" x="321" y="209.356">pi&#232;ce P identifi&#233;e</text><path d="M267.5,229.4219 L387.5,229.4219 L387.5,236.5547 L377.5,246.5547 L267.5,246.5547 L267.5,229.4219 " fill="#CCCCFF" style="stroke:#000000;stroke-width:1.5;"/><rect fill="none" height="250.1953" style="stroke:#000000;stroke-width:1.5;" width="899" x="267.5" y="229.4219"/><text fill="#000000" font-family="sans-serif" font-size="13" font-weight="bold" lengthAdjust="spacing" textLength="75" x="282.5" y="242.4888">dmd devis</text><polygon fill="#181818" points="511,263.6875,521,267.6875,511,271.6875,515,267.6875" style="stroke:#181818;stroke-width:1.0;"/><line style="stroke:#181818;stroke-width:1.0;" x1="304" x2="517" y1="267.6875" y2="267.6875"/><text fill="#000000" font-family="sans-serif" font-size="13" lengthAdjust="spacing" textLength="157" x="311" y="262.6216">consulter aide financiere</text><polygon fill="#181818" points="315,292.8203,305,296.8203,315,300.8203,311,296.8203" style="stroke:#181818;stroke-width:1.0;"/><line style="stroke:#181818;stroke-width:1.0;stroke-dasharray:2.0,2.0;" x1="309" x2="522" y1="296.8203" y2="296.8203"/><text fill="#000000" font-family="sans-serif" font-size="13" lengthAdjust="spacing" textLength="97" x="321" y="291.7544">aides possibles</text><polygon fill="#181818" points="865.5,321.9531,875.5,325.9531,865.5,329.9531,869.5,325.9531" style="stroke:#181818;stroke-width:1.0;"/><line style="stroke:#181818;stroke-width:1.0;" x1="304" x2="871.5" y1="325.9531" y2="325.9531"/><text fill="#000000" font-family="sans-serif" font-size="13" lengthAdjust="spacing" textLength="79" x="311" y="320.8872">dmd devis P</text><polygon fill="#181818" points="315,351.0859,305,355.0859,315,359.0859,311,355.0859" style="stroke:#181818;stroke-width:1.0;"/><line style="stroke:#181818;stroke-width:1.0;stroke-dasharray:2.0,2.0;" x1="309" x2="876.5" y1="355.0859" y2="355.0859"/><text fill="#000000" font-family="sans-serif" font-size="13" lengthAdjust="spacing" textLength="54" x="321" y="350.02">devis P1</text><polygon fill="#181818" points="981,380.2188,991,384.2188,981,388.2188,985,384.2188" style="stroke:#181818;stroke-width:1.0;"/><line style="stroke:#181818;stroke-width:1.0;" x1="304" x2="987" y1="384.2188" y2="384.2188"/><text fill="#000000" font-family="sans-serif" font-size="13" lengthAdjust="spacing" textLength="79" x="311" y="379.1528">dmd devis P</text><polygon fill="#181818" points="315,409.3516,305,413.3516,315,417.3516,311,413.3516" style="stroke:#181818;stroke-width:1.0;"/><line style="stroke:#181818;stroke-width:1.0;stroke-dasharray:2.0,2.0;" x1="309" x2="992" y1="413.3516" y2="413.3516"/><text fill="#000000" font-family="sans-serif" font-size="13" lengthAdjust="spacing" textLength="81" x="321" y="408.2856">pas en stock</text><polygon fill="#181818" points="1094,438.4844,1104,442.4844,1094,446.4844,1098,442.4844" style="stroke:#181818;stroke-width:1.0;"/><line style="stroke:#181818;stroke-width:1.0;" x1="304" x2="1100" y1="442.4844" y2="442.4844"/><text fill="#000000" font-family="sans-serif" font-size="13" lengthAdjust="spacing" textLength="79" x="311" y="437.4185">dmd devis P</text><polygon fill="#181818" points="315,467.6172,305,471.6172,315,475.6172,311,471.6172" style="stroke:#181818;stroke-width:1.0;"/><line style="stroke:#181818;stroke-width:1.0;stroke-dasharray:2.0,2.0;" x1="309" x2="1105" y1="471.6172" y2="471.6172"/><text fill="#000000" font-family="sans-serif" font-size="13" lengthAdjust="spacing" textLength="57" x="321" y="466.5513">devis P'1</text><line style="stroke:#181818;stroke-width:1.0;" x1="267" x2="309" y1="522.8828" y2="522.8828"/><line style="stroke:#181818;stroke-width:1.0;" x1="267" x2="267" y1="522.8828" y2="535.8828"/><line style="stroke:#181818;stroke-width:1.0;" x1="267" x2="308" y1="535.8828" y2="535.8828"/><polygon fill="#181818" points="300,531.8828,310,535.8828,300,539.8828,304,535.8828" style="stroke:#181818;stroke-width:1.0;"/><text fill="#000000" font-family="sans-serif" font-size="13" lengthAdjust="spacing" textLength="72" x="202" y="502.6841">choix selon</text><text fill="#000000" font-family="sans-serif" font-size="13" lengthAdjust="spacing" textLength="107" x="202" y="517.8169">prix et confiance</text><path d="M10,580.8828 L76,580.8828 L76,588.0156 L66,598.0156 L10,598.0156 L10,580.8828 " fill="#FFD700" style="stroke:#000000;stroke-width:1.5;"/><rect fill="none" height="915" style="stroke:#000000;stroke-width:1.5;" width="1514.5" x="10" y="580.8828"/><text fill="#000000" font-family="sans-serif" font-size="13" font-weight="bold" lengthAdjust="spacing" textLength="21" x="25" y="593.9497">alt</text><text fill="#000000" font-family="sans-serif" font-size="11" font-weight="bold" lengthAdjust="spacing" textLength="188" x="91" y="593.0933">[interet financier &#224; r&#233;parer]</text><polygon fill="#181818" points="1094,615.1484,1104,619.1484,1094,623.1484,1098,619.1484" style="stroke:#181818;stroke-width:1.0;"/><line style="stroke:#181818;stroke-width:1.0;" x1="304" x2="1100" y1="619.1484" y2="619.1484"/><text fill="#000000" font-family="sans-serif" font-size="13" lengthAdjust="spacing" textLength="33" x="311" y="614.0825">refus</text><polygon fill="#181818" points="865.5,644.2813,875.5,648.2813,865.5,652.2813,869.5,648.2813" style="stroke:#181818;stroke-width:1.0;"/><line style="stroke:#181818;stroke-width:1.0;" x1="304" x2="871.5" y1="648.2813" y2="648.2813"/><text fill="#000000" font-family="sans-serif" font-size="13" lengthAdjust="spacing" textLength="56" x="311" y="643.2153">achat P1</text><polygon fill="#181818" points="315,673.4141,305,677.4141,315,681.4141,311,677.4141" style="stroke:#181818;stroke-width:1.0;"/><line style="stroke:#181818;stroke-width:1.0;stroke-dasharray:2.0,2.0;" x1="309" x2="876.5" y1="677.4141" y2="677.4141"/><text fill="#000000" font-family="sans-serif" font-size="13" lengthAdjust="spacing" textLength="118" x="321" y="672.3481">confirme vente P1</text><path d="M257.5,692.4141 L323.5,692.4141 L323.5,699.5469 L313.5,709.5469 L257.5,709.5469 L257.5,692.4141 " fill="#FFD700" style="stroke:#000000;stroke-width:1.5;"/><rect fill="none" height="527.4688" style="stroke:#000000;stroke-width:1.5;" width="549" x="257.5" y="692.4141"/><text fill="#000000" font-family="sans-serif" font-size="13" font-weight="bold" lengthAdjust="spacing" textLength="21" x="272.5" y="705.481">alt</text><text fill="#000000" font-family="sans-serif" font-size="11" font-weight="bold" lengthAdjust="spacing" textLength="167" x="338.5" y="704.6245">[competence suffisante]</text><line style="stroke:#181818;stroke-width:1.0;" x1="267" x2="309" y1="730.6797" y2="730.6797"/><line style="stroke:#181818;stroke-width:1.0;" x1="267" x2="267" y1="730.6797" y2="743.6797"/><line style="stroke:#181818;stroke-width:1.0;" x1="267" x2="308" y1="743.6797" y2="743.6797"/><polygon fill="#181818" points="300,739.6797,310,743.6797,300,747.6797,304,743.6797" style="stroke:#181818;stroke-width:1.0;"/><text fill="#000000" font-family="sans-serif" font-size="13" lengthAdjust="spacing" textLength="66" x="243" y="725.6138">reparation</text><line style="stroke:#000000;stroke-width:1.0;stroke-dasharray:2.0,2.0;" x1="257.5" x2="806.5" y1="782.6797" y2="782.6797"/><text fill="#000000" font-family="sans-serif" font-size="11" font-weight="bold" lengthAdjust="spacing" textLength="179" x="262.5" y="792.8901">[competence insuffisante]</text><path d="M267.5,803.4844 L333.5,803.4844 L333.5,810.6172 L323.5,820.6172 L267.5,820.6172 L267.5,803.4844 " fill="#FFD700" style="stroke:#000000;stroke-width:1.5;"/><rect fill="none" height="409.3984" style="stroke:#000000;stroke-width:1.5;" width="529" x="267.5" y="803.4844"/><text fill="#000000" font-family="sans-serif" font-size="13" font-weight="bold" lengthAdjust="spacing" textLength="21" x="282.5" y="816.5513">alt</text><text fill="#000000" font-family="sans-serif" font-size="11" font-weight="bold" lengthAdjust="spacing" textLength="212" x="348.5" y="815.6948">[desir garder repair cafe initial]</text><polygon fill="#181818" points="742.5,837.75,752.5,841.75,742.5,845.75,746.5,841.75" style="stroke:#181818;stroke-width:1.0;"/><line style="stroke:#181818;stroke-width:1.0;" x1="304" x2="748.5" y1="841.75" y2="841.75"/><text fill="#000000" font-family="sans-serif" font-size="13" lengthAdjust="spacing" textLength="105" x="311" y="836.6841">demande rdz-vs</text><polygon fill="#181818" points="315,849.75,305,853.75,315,857.75,311,853.75" style="stroke:#181818;stroke-width:1.0;"/><line style="stroke:#181818;stroke-width:1.0;stroke-dasharray:2.0,2.0;" x1="309" x2="753.5" y1="853.75" y2="853.75"/><text fill="#000000" font-family="sans-serif" font-size="13" lengthAdjust="spacing" textLength="110" x="321" y="866.8169">rdz-vs reparation</text><polygon fill="#181818" points="737.5,896.0156,747.5,900.0156,737.5,904.0156,741.5,900.0156" style="stroke:#181818;stroke-width:1.0;"/><line style="stroke:#181818;stroke-width:1.0;" x1="309" x2="743.5" y1="900.0156" y2="900.0156"/><text fill="#000000" font-family="sans-serif" font-size="13" lengthAdjust="spacing" textLength="123" x="316" y="894.9497">reparation assistee</text><polygon fill="#181818" points="315,938.0156,305,942.0156,315,946.0156,311,942.0156" style="stroke:#181818;stroke-width:1.0;"/><line style="stroke:#181818;stroke-width:1.0;stroke-dasharray:2.0,2.0;" x1="309" x2="753.5" y1="942.0156" y2="942.0156"/><line style="stroke:#000000;stroke-width:1.0;stroke-dasharray:2.0,2.0;" x1="267.5" x2="796.5" y1="953.0156" y2="953.0156"/><text fill="#000000" font-family="sans-serif" font-size="11" font-weight="bold" lengthAdjust="spacing" textLength="174" x="272.5" y="963.2261">[recherche de repair caf&#233;]</text><polygon fill="#181818" points="511,999.0859,521,1003.0859,511,1007.0859,515,1003.0859" style="stroke:#181818;stroke-width:1.0;"/><line style="stroke:#181818;stroke-width:1.0;" x1="304" x2="517" y1="1003.0859" y2="1003.0859"/><text fill="#000000" font-family="sans-serif" font-size="13" lengthAdjust="spacing" textLength="164" x="311" y="982.8872">demande liste repair caf&#233;</text><text fill="#000000" font-family="sans-serif" font-size="13" lengthAdjust="spacing" textLength="86" x="315" y="998.02">selon crit&#232;res</text><polygon fill="#181818" points="315,1011.0859,305,1015.0859,315,1019.0859,311,1015.0859" style="stroke:#181818;stroke-width:1.0;"/><line style="stroke:#181818;stroke-width:1.0;stroke-dasharray:2.0,2.0;" x1="309" x2="522" y1="1015.0859" y2="1015.0859"/><text fill="#000000" font-family="sans-serif" font-size="13" lengthAdjust="spacing" textLength="55" x="321" y="1028.1528">contacts</text><polygon fill="#181818" points="595.5,1057.3516,605.5,1061.3516,595.5,1065.3516,599.5,1061.3516" style="stroke:#181818;stroke-width:1.0;"/><line style="stroke:#181818;stroke-width:1.0;" x1="304" x2="601.5" y1="1061.3516" y2="1061.3516"/><text fill="#000000" font-family="sans-serif" font-size="13" lengthAdjust="spacing" textLength="105" x="311" y="1056.2856">demande rdz-vs</text><polygon fill="#181818" points="315,1069.3516,305,1073.3516,315,1077.3516,311,1073.3516" style="stroke:#181818;stroke-width:1.0;"/><line style="stroke:#181818;stroke-width:1.0;stroke-dasharray:2.0,2.0;" x1="309" x2="606.5" y1="1073.3516" y2="1073.3516"/><polygon fill="#181818" points="669,1100.4844,679,1104.4844,669,1108.4844,673,1104.4844" style="stroke:#181818;stroke-width:1.0;"/><line style="stroke:#181818;stroke-width:1.0;" x1="304" x2="675" y1="1104.4844" y2="1104.4844"/><text fill="#000000" font-family="sans-serif" font-size="13" lengthAdjust="spacing" textLength="105" x="311" y="1099.4185">demande rdz-vs</text><polygon fill="#181818" points="315,1112.4844,305,1116.4844,315,1120.4844,311,1116.4844" style="stroke:#181818;stroke-width:1.0;"/><line style="stroke:#181818;stroke-width:1.0;stroke-dasharray:2.0,2.0;" x1="309" x2="680" y1="1116.4844" y2="1116.4844"/><line style="stroke:#181818;stroke-width:1.0;" x1="262" x2="304" y1="1162.75" y2="1162.75"/><line style="stroke:#181818;stroke-width:1.0;" x1="262" x2="262" y1="1162.75" y2="1175.75"/><line style="stroke:#181818;stroke-width:1.0;" x1="262" x2="303" y1="1175.75" y2="1175.75"/><polygon fill="#181818" points="295,1171.75,305,1175.75,295,1179.75,299,1175.75" style="stroke:#181818;stroke-width:1.0;"/><text fill="#000000" font-family="sans-serif" font-size="13" lengthAdjust="spacing" textLength="107" x="197" y="1142.5513">choix repair cafe</text><text fill="#000000" font-family="sans-serif" font-size="13" lengthAdjust="spacing" textLength="99" x="201" y="1157.6841">pour reparation</text><polygon fill="#181818" points="595.5,1200.8828,605.5,1204.8828,595.5,1208.8828,599.5,1204.8828" style="stroke:#181818;stroke-width:1.0;"/><line style="stroke:#181818;stroke-width:1.0;" x1="304" x2="601.5" y1="1204.8828" y2="1204.8828"/><text fill="#000000" font-family="sans-serif" font-size="13" lengthAdjust="spacing" textLength="123" x="311" y="1199.8169">reparation assistee</text><line style="stroke:#000000;stroke-width:1.0;stroke-dasharray:2.0,2.0;" x1="10" x2="1524.5" y1="1227.8828" y2="1227.8828"/><text fill="#000000" font-family="sans-serif" font-size="11" font-weight="bold" lengthAdjust="spacing" textLength="332" x="15" y="1238.0933">[interet limit&#233; dans la r&#233;paration: remplacement]</text><polygon fill="#181818" points="511,1276.9531,521,1280.9531,511,1284.9531,515,1280.9531" style="stroke:#181818;stroke-width:1.0;"/><line style="stroke:#181818;stroke-width:1.0;" x1="304" x2="517" y1="1280.9531" y2="1280.9531"/><text fill="#000000" font-family="sans-serif" font-size="13" lengthAdjust="spacing" textLength="195" x="311" y="1275.8872">dmd distributeurs type produit</text><path d="M20,1246.6875 L20,1301.6875 L299,1301.6875 L299,1256.6875 L289,1246.6875 L20,1246.6875 " fill="#FEFFDD" style="stroke:#181818;stroke-width:0.5;"/><path d="M289,1246.6875 L289,1256.6875 L299,1256.6875 L289,1246.6875 " fill="#FEFFDD" style="stroke:#181818;stroke-width:0.5;"/><text fill="#000000" font-family="sans-serif" font-size="13" lengthAdjust="spacing" textLength="133" x="26" y="1263.7544">co&#251;t de la r&#233;paration</text><text fill="#000000" font-family="sans-serif" font-size="13" lengthAdjust="spacing" textLength="254" x="30" y="1278.8872">proche de l'achat d'un nouveau produit.</text><text fill="#000000" font-family="sans-serif" font-size="13" lengthAdjust="spacing" textLength="229" x="30" y="1294.02">Contact des distributeurs ad&#233;quats.</text><polygon fill="#181818" points="315,1307.0859,305,1311.0859,315,1315.0859,311,1311.0859" style="stroke:#181818;stroke-width:1.0;"/><line style="stroke:#181818;stroke-width:1.0;stroke-dasharray:2.0,2.0;" x1="309" x2="522" y1="1311.0859" y2="1311.0859"/><text fill="#000000" font-family="sans-serif" font-size="13" lengthAdjust="spacing" textLength="110" x="321" y="1324.1528">liste distributeurs</text><polygon fill="#181818" points="1211.5,1353.3516,1221.5,1357.3516,1211.5,1361.3516,1215.5,1357.3516" style="stroke:#181818;stroke-width:1.0;"/><line style="stroke:#181818;stroke-width:1.0;" x1="304" x2="1217.5" y1="1357.3516" y2="1357.3516"/><text fill="#000000" font-family="sans-serif" font-size="13" lengthAdjust="spacing" textLength="176" x="311" y="1352.2856">dmd produit remplacement</text><polygon fill="#181818" points="315,1365.3516,305,1369.3516,315,1373.3516,311,1369.3516" style="stroke:#181818;stroke-width:1.0;"/><line style="stroke:#181818;stroke-width:1.0;stroke-dasharray:2.0,2.0;" x1="309" x2="1222.5" y1="1369.3516" y2="1369.3516"/><text fill="#000000" font-family="sans-serif" font-size="13" lengthAdjust="spacing" textLength="76" x="321" y="1382.4185">nvo_produit</text><polygon fill="#181818" points="1452,1411.6172,1462,1415.6172,1452,1419.6172,1456,1415.6172" style="stroke:#181818;stroke-width:1.0;"/><line style="stroke:#181818;stroke-width:1.0;" x1="304" x2="1458" y1="1415.6172" y2="1415.6172"/><text fill="#000000" font-family="sans-serif" font-size="13" lengthAdjust="spacing" textLength="176" x="311" y="1410.5513">dmd produit remplacement</text><polygon fill="#181818" points="315,1423.6172,305,1427.6172,315,1431.6172,311,1427.6172" style="stroke:#181818;stroke-width:1.0;"/><line style="stroke:#181818;stroke-width:1.0;stroke-dasharray:2.0,2.0;" x1="309" x2="1222.5" y1="1427.6172" y2="1427.6172"/><text fill="#000000" font-family="sans-serif" font-size="13" lengthAdjust="spacing" textLength="108" x="321" y="1440.6841">produit_occasion</text><polygon fill="#181818" points="1452,1469.8828,1462,1473.8828,1452,1477.8828,1456,1473.8828" style="stroke:#181818;stroke-width:1.0;"/><line style="stroke:#181818;stroke-width:1.0;" x1="304" x2="1458" y1="1473.8828" y2="1473.8828"/><text fill="#000000" font-family="sans-serif" font-size="13" lengthAdjust="spacing" textLength="209" x="311" y="1468.8169">confirme achat produit_occasion</text><polygon fill="#181818" points="315,1481.8828,305,1485.8828,315,1489.8828,311,1485.8828" style="stroke:#181818;stroke-width:1.0;"/><line style="stroke:#181818;stroke-width:1.0;stroke-dasharray:2.0,2.0;" x1="309" x2="1463" y1="1485.8828" y2="1485.8828"/><!--SRC=[bLPBRjj84Dtp58LeuPKo8BCQ8Hw0jgXiF8uW0mCC822eD8jo8sIJwMugSKwJPNI6MV9YgUP796NA8mkm1NQ_LvzN7yfyaQf0ZHbeCaMk3FrDnk2ERYZDluLQvz_0wf8y1bafP87AGcb8-p0wUlCWBMtL0yQK8UetW0OC7y5Cv1hJ4_262fHwg-0Ma-e0VWtNmeUPHVKoDcYnmGNOTotstHHsBQjVWWo3u-fWKJnM1p9jA4NCeUmqqMMae2K5ho1jLQ1YWWobEZerx3MLkqSxPMKfZTNoSscfr2t3HIcUy4La4viBxN-GpmFguta5jVLdWX7LkxuExyExVnyYM02im_lx23RHEjo4DtSHFs_-2F-9Rk4kX7MqUVZ8rzVNNjDcyxzS1HTGS8EIicXbhlWXZqjfFHHMxf7RZ27zGqtqNDqxCYfCdmmTUUrT3MJJTO5W3J9c3pAHN20lfXDxWmFdRQVpifZTycUrWbcqYbRy7MSnnBINfW_UJS4218zMcLhIWEm44gbG2KcQl7fAvbqmB8y3S3VaniZFAGqiSLSkUW-mzboRpliqscD_o0XE6S6GKN2fkD6CpSMN8SiySsIcF5tv7gcu9RwVTxVYCPVVmV02KR1LXUO7iaw1H7BIv9tNjJdmCBMp3taQm-pcPhLQBa4gLevj76M3wYVewi0TITe3_eo3rvIKvlJSN_3eeNK2kPknU7LqEYFOSmTGXwd_zT54NECeuaooWYnnAc3A99661u9gQE-nLqEJsw-kQu-GatoxusT2k4DAkMrdosMjmy2pL1E- -r1NJQZSILB33dNCckbwEuB0nD6bbPWUcIEjtCYuFUw6MiS_vdipWNi_dzV01Z2LvZERFOPtXE45GZG2dz5bTEL6RtWnATh4vIblbCJnfb4xkbtz6OMSadWapN_WT3YALnscCwm7lPCjTTcDIBp-cv4GMjhg5s-pwNZc_SRWTuKrv-JqBosHVyv2SAc5OF9cFEw3vk9CYxpK5xI4_s9BkDtIVJU5uPuEkJ3TEaXbnb8U84Pb8CLs8zJMtDnbHOg2CXveRw9GRhqDtc46x5FHlo0SGULSmfGIwufH_MTT6uozREitKTiXwLMpN-AhKZ6tt1EMdRstxZT9Kr0taoUUaNyNV2tHchVUMFewqgQLHennFhpPN3QjgtE9Etlk1G9gdtyQfjdRCQyprE8-vKAWwQeyidRSgeqoBn1gewP-d_m6]--></g></svg>