<?xml version="1.0" encoding="us-ascii" standalone="no"?><svg xmlns="http://www.w3.org/2000/svg" xmlns:xlink="http://www.w3.org/1999/xlink" contentStyleType="text/css" height="500px" preserveAspectRatio="none" style="width:520px;height:500px;background:#FFFFFF;" version="1.1" viewBox="0 0 520 500" width="520px" zoomAndPan="magnify"><defs/><g><line style="stroke:#181818;stroke-width:0.5;stroke-dasharray:5.0,5.0;" x1="91.5" x2="91.5" y1="52.5938" y2="449.3203"/><line style="stroke:#181818;stroke-width:0.5;stroke-dasharray:5.0,5.0;" x1="244.5" x2="244.5" y1="52.5938" y2="449.3203"/><line style="stroke:#181818;stroke-width:0.5;stroke-dasharray:5.0,5.0;" x1="329.5" x2="329.5" y1="52.5938" y2="449.3203"/><line style="stroke:#181818;stroke-width:0.5;stroke-dasharray:5.0,5.0;" x1="402.5" x2="402.5" y1="52.5938" y2="449.3203"/><line style="stroke:#181818;stroke-width:0.5;stroke-dasharray:5.0,5.0;" x1="476.5" x2="476.5" y1="52.5938" y2="449.3203"/><rect fill="#E2E2F0" height="30.2969" rx="2.5" ry="2.5" style="stroke:#181818;stroke-width:0.5;" width="53" x="65.5" y="21.2969"/><text fill="#000000" font-family="sans-serif" font-size="14" lengthAdjust="spacing" textLength="39" x="72.5" y="41.292">user1</text><rect fill="#E2E2F0" height="30.2969" rx="2.5" ry="2.5" style="stroke:#181818;stroke-width:0.5;" width="53" x="65.5" y="448.3203"/><text fill="#000000" font-family="sans-serif" font-size="14" lengthAdjust="spacing" textLength="39" x="72.5" y="468.3154">user1</text><rect fill="#FF7F50" height="46.5938" rx="2.5" ry="2.5" style="stroke:#181818;stroke-width:0.5;" width="85" x="202.5" y="5"/><text fill="#000000" font-family="sans-serif" font-size="14" lengthAdjust="spacing" textLength="29" x="230.5" y="24.9951">Site</text><text fill="#000000" font-family="sans-serif" font-size="14" lengthAdjust="spacing" textLength="71" x="209.5" y="41.292">Sademaar</text><rect fill="#FF7F50" height="46.5938" rx="2.5" ry="2.5" style="stroke:#181818;stroke-width:0.5;" width="85" x="202.5" y="448.3203"/><text fill="#000000" font-family="sans-serif" font-size="14" lengthAdjust="spacing" textLength="29" x="230.5" y="468.3154">Site</text><text fill="#000000" font-family="sans-serif" font-size="14" lengthAdjust="spacing" textLength="71" x="209.5" y="484.6123">Sademaar</text><rect fill="#D2B48C" height="46.5938" rx="2.5" ry="2.5" style="stroke:#181818;stroke-width:0.5;" width="64" x="297.5" y="5"/><text fill="#000000" font-family="sans-serif" font-size="14" lengthAdjust="spacing" textLength="47" x="306" y="24.9951">Repair</text><text fill="#000000" font-family="sans-serif" font-size="14" lengthAdjust="spacing" textLength="46" x="308.5" y="41.292">Caf&#233; 1</text><rect fill="#D2B48C" height="46.5938" rx="2.5" ry="2.5" style="stroke:#181818;stroke-width:0.5;" width="64" x="297.5" y="448.3203"/><text fill="#000000" font-family="sans-serif" font-size="14" lengthAdjust="spacing" textLength="47" x="306" y="468.3154">Repair</text><text fill="#000000" font-family="sans-serif" font-size="14" lengthAdjust="spacing" textLength="46" x="308.5" y="484.6123">Caf&#233; 1</text><rect fill="#D2B48C" height="46.5938" rx="2.5" ry="2.5" style="stroke:#181818;stroke-width:0.5;" width="63" x="371.5" y="5"/><text fill="#000000" font-family="sans-serif" font-size="14" lengthAdjust="spacing" textLength="47" x="379.5" y="24.9951">Repair</text><text fill="#000000" font-family="sans-serif" font-size="14" lengthAdjust="spacing" textLength="45" x="382.5" y="41.292">Caf&#233; 2</text><rect fill="#D2B48C" height="46.5938" rx="2.5" ry="2.5" style="stroke:#181818;stroke-width:0.5;" width="63" x="371.5" y="448.3203"/><text fill="#000000" font-family="sans-serif" font-size="14" lengthAdjust="spacing" textLength="47" x="379.5" y="468.3154">Repair</text><text fill="#000000" font-family="sans-serif" font-size="14" lengthAdjust="spacing" textLength="45" x="382.5" y="484.6123">Caf&#233; 2</text><rect fill="#D2B48C" height="46.5938" rx="2.5" ry="2.5" style="stroke:#181818;stroke-width:0.5;" width="64" x="444.5" y="5"/><text fill="#000000" font-family="sans-serif" font-size="14" lengthAdjust="spacing" textLength="47" x="453" y="24.9951">Repair</text><text fill="#000000" font-family="sans-serif" font-size="14" lengthAdjust="spacing" textLength="46" x="455.5" y="41.292">Caf&#233; 3</text><rect fill="#D2B48C" height="46.5938" rx="2.5" ry="2.5" style="stroke:#181818;stroke-width:0.5;" width="64" x="444.5" y="448.3203"/><text fill="#000000" font-family="sans-serif" font-size="14" lengthAdjust="spacing" textLength="47" x="453" y="468.3154">Repair</text><text fill="#000000" font-family="sans-serif" font-size="14" lengthAdjust="spacing" textLength="46" x="455.5" y="484.6123">Caf&#233; 3</text><rect fill="#EEEEEE" height="3" style="stroke:#EEEEEE;stroke-width:1.0;" width="513.5" x="0" y="83.1602"/><line style="stroke:#000000;stroke-width:1.0;" x1="0" x2="513.5" y1="83.1602" y2="83.1602"/><line style="stroke:#000000;stroke-width:1.0;" x1="0" x2="513.5" y1="86.1602" y2="86.1602"/><rect fill="#EEEEEE" height="23.1328" style="stroke:#000000;stroke-width:2.0;" width="137" x="188.25" y="72.5938"/><text fill="#000000" font-family="sans-serif" font-size="13" font-weight="bold" lengthAdjust="spacing" textLength="123" x="194.25" y="88.6606">DECLARE PANNE</text><polygon fill="#181818" points="233,137.9922,243,141.9922,233,145.9922,237,141.9922" style="stroke:#181818;stroke-width:1.0;"/><line style="stroke:#181818;stroke-width:1.0;" x1="92" x2="239" y1="141.9922" y2="141.9922"/><text fill="#000000" font-family="sans-serif" font-size="13" lengthAdjust="spacing" textLength="70" x="99" y="121.7935">description</text><text fill="#000000" font-family="sans-serif" font-size="13" lengthAdjust="spacing" textLength="129" x="99" y="136.9263">du produit en panne</text><line style="stroke:#181818;stroke-width:1.0;" x1="203" x2="245" y1="186.2578" y2="186.2578"/><line style="stroke:#181818;stroke-width:1.0;" x1="203" x2="203" y1="186.2578" y2="199.2578"/><line style="stroke:#181818;stroke-width:1.0;" x1="203" x2="244" y1="199.2578" y2="199.2578"/><polygon fill="#181818" points="236,195.2578,246,199.2578,236,203.2578,240,199.2578" style="stroke:#181818;stroke-width:1.0;"/><text fill="#000000" font-family="sans-serif" font-size="13" lengthAdjust="spacing" textLength="34" x="113" y="166.0591">choix</text><text fill="#000000" font-family="sans-serif" font-size="13" lengthAdjust="spacing" textLength="132" x="113" y="181.1919">repair caf&#233;s adapt&#233;s</text><polygon fill="#181818" points="317.5,224.3906,327.5,228.3906,317.5,232.3906,321.5,228.3906" style="stroke:#181818;stroke-width:1.0;"/><line style="stroke:#181818;stroke-width:1.0;" x1="245" x2="323.5" y1="228.3906" y2="228.3906"/><text fill="#000000" font-family="sans-serif" font-size="13" lengthAdjust="spacing" textLength="36" x="252" y="223.3247">msg1</text><polygon fill="#181818" points="464.5,253.5234,474.5,257.5234,464.5,261.5234,468.5,257.5234" style="stroke:#181818;stroke-width:1.0;"/><line style="stroke:#181818;stroke-width:1.0;" x1="245" x2="470.5" y1="257.5234" y2="257.5234"/><text fill="#000000" font-family="sans-serif" font-size="13" lengthAdjust="spacing" textLength="36" x="252" y="252.4575">msg1</text><polygon fill="#181818" points="103,282.6563,93,286.6563,103,290.6563,99,286.6563" style="stroke:#181818;stroke-width:1.0;"/><line style="stroke:#181818;stroke-width:1.0;stroke-dasharray:2.0,2.0;" x1="97" x2="328.5" y1="286.6563" y2="286.6563"/><text fill="#000000" font-family="sans-serif" font-size="13" lengthAdjust="spacing" textLength="106" x="109" y="281.5903">rdz-vs (creneau)</text><polygon fill="#181818" points="103,311.7891,93,315.7891,103,319.7891,99,315.7891" style="stroke:#181818;stroke-width:1.0;"/><line style="stroke:#181818;stroke-width:1.0;stroke-dasharray:2.0,2.0;" x1="97" x2="475.5" y1="315.7891" y2="315.7891"/><text fill="#000000" font-family="sans-serif" font-size="13" lengthAdjust="spacing" textLength="106" x="109" y="310.7231">rdz-vs (creneau)</text><line style="stroke:#181818;stroke-width:1.0;" x1="50" x2="92" y1="344.9219" y2="344.9219"/><line style="stroke:#181818;stroke-width:1.0;" x1="50" x2="50" y1="344.9219" y2="357.9219"/><line style="stroke:#181818;stroke-width:1.0;" x1="50" x2="91" y1="357.9219" y2="357.9219"/><polygon fill="#181818" points="83,353.9219,93,357.9219,83,361.9219,87,357.9219" style="stroke:#181818;stroke-width:1.0;"/><text fill="#000000" font-family="sans-serif" font-size="13" lengthAdjust="spacing" textLength="78" x="14" y="339.856">choix rdz-vs</text><polygon fill="#181818" points="233,398.1875,243,402.1875,233,406.1875,237,402.1875" style="stroke:#181818;stroke-width:1.0;"/><line style="stroke:#181818;stroke-width:1.0;" x1="92" x2="239" y1="402.1875" y2="402.1875"/><text fill="#000000" font-family="sans-serif" font-size="13" lengthAdjust="spacing" textLength="75" x="99" y="381.9888">acceptation</text><text fill="#000000" font-family="sans-serif" font-size="13" lengthAdjust="spacing" textLength="64" x="103" y="397.1216">rdz-vs rc3</text><polygon fill="#181818" points="464.5,427.3203,474.5,431.3203,464.5,435.3203,468.5,431.3203" style="stroke:#181818;stroke-width:1.0;"/><line style="stroke:#181818;stroke-width:1.0;" x1="245" x2="470.5" y1="431.3203" y2="431.3203"/><text fill="#000000" font-family="sans-serif" font-size="13" lengthAdjust="spacing" textLength="119" x="252" y="426.2544">acceptation rdz-vs</text><!--SRC=[ZP2nJiD038RtUmgh7Q13XYHRH92gaWrLg5spM7TkUnAzd7mN13mHF4TV32SvrDAXOhD-VRBz_HuvMcqzkWXz8Cv1-OjejhMHMhT5GqT4dW4621B1N7UChrVmXZnQRXsiS7VwXdp4MUSmZ-XkiqLYYt-mPMBBnAgwVcfMpyjD0o_BzRgfQpMfP8_ZinKO2fgjZxPpq3hJW-VEz3O2EP0JZjGezP1Dl3vqzhrrF9u5FHmDW0Pzb652PRM8LN0C-rpTmJahKdPEofGCHMIIZBzLmEOpUmjmhvaSOR-GBOF-9K6xNW17i3zzCScd0JH1_F0aHhyE2pKqSMlnL8R89M3KIzXrKwWr-OX3Kz9tMYK7_lfSK8dv0G00]--></g></svg>