<?xml version="1.0" encoding="us-ascii" standalone="no"?><svg xmlns="http://www.w3.org/2000/svg" xmlns:xlink="http://www.w3.org/1999/xlink" contentStyleType="text/css" height="1635px" preserveAspectRatio="none" style="width:2025px;height:1635px;background:#FFFFFF;" version="1.1" viewBox="0 0 2025 1635" width="2025px" zoomAndPan="magnify"><defs/><g><rect fill="none" height="20.9531" style="stroke:none;stroke-width:1.0;" width="1992.5" x="15" y="12.7451"/><ellipse cx="912.5" cy="48.6982" fill="#222222" rx="10" ry="10" style="stroke:#222222;stroke-width:1.0;"/><rect fill="#FFDD00" height="33.9688" rx="12.5" ry="12.5" style="stroke:#181818;stroke-width:0.5;" width="100" x="862.5" y="78.6982"/><text fill="#000000" font-family="sans-serif" font-size="12" lengthAdjust="spacing" textLength="80" x="872.5" y="99.8369">se connecter</text><line style="stroke:#181818;stroke-width:1.5;" x1="838" x2="979" y1="132.667" y2="132.667"/><rect fill="#FFDD00" height="33.9688" rx="12.5" ry="12.5" style="stroke:#181818;stroke-width:0.5;" width="105" x="785.5" y="152.667"/><text fill="#000000" font-family="sans-serif" font-size="12" lengthAdjust="spacing" textLength="85" x="795.5" y="173.8057">d&#233;finir produit</text><rect fill="#FFDD00" height="33.9688" rx="12.5" ry="12.5" style="stroke:#181818;stroke-width:0.5;" width="121" x="918.5" y="152.667"/><text fill="#000000" font-family="sans-serif" font-size="12" lengthAdjust="spacing" textLength="101" x="928.5" y="173.8057">d&#233;finir probl&#232;me</text><line style="stroke:#181818;stroke-width:1.5;" x1="838" x2="979" y1="206.6357" y2="206.6357"/><rect fill="#FFDD00" height="33.9688" rx="12.5" ry="12.5" style="stroke:#181818;stroke-width:0.5;" width="264" x="780.5" y="226.6357"/><text fill="#000000" font-family="sans-serif" font-size="12" lengthAdjust="spacing" textLength="244" x="790.5" y="247.7744">&#233;valuer sa comp&#233;tence sur le probl&#232;me</text><rect fill="#FFDD00" height="33.9688" rx="12.5" ry="12.5" style="stroke:#181818;stroke-width:0.5;" width="283" x="771" y="280.6045"/><text fill="#000000" font-family="sans-serif" font-size="12" lengthAdjust="spacing" textLength="263" x="781" y="301.7432">demander information sur aides financi&#232;res</text><rect fill="#FFDD00" height="33.9688" rx="12.5" ry="12.5" style="stroke:#181818;stroke-width:0.5;" width="151" x="837" y="334.5732"/><text fill="#000000" font-family="sans-serif" font-size="12" lengthAdjust="spacing" textLength="127" x="847" y="355.7119">consulter tutos/aides</text><rect fill="#FFDD00" height="33.9688" rx="12.5" ry="12.5" style="stroke:#181818;stroke-width:0.5;" width="219" x="803" y="388.542"/><text fill="#000000" font-family="sans-serif" font-size="12" lengthAdjust="spacing" textLength="195" x="813" y="409.6807">demander liste de repairs caf&#233;s</text><rect fill="#F1F1F1" height="75.875" rx="12.5" ry="12.5" style="stroke:#181818;stroke-width:0.5;" width="138" x="843.5" y="442.5107"/><text fill="#000000" font-family="sans-serif" font-size="12" lengthAdjust="spacing" textLength="81" x="853.5" y="463.6494">trier RC selon</text><text fill="#000000" font-family="sans-serif" font-size="12" lengthAdjust="spacing" textLength="86" x="869.5" y="477.6182">- disponibilit&#233;,</text><text fill="#000000" font-family="sans-serif" font-size="12" lengthAdjust="spacing" textLength="70" x="869.5" y="491.5869">- proximit&#233;,</text><text fill="#000000" font-family="sans-serif" font-size="12" lengthAdjust="spacing" textLength="98" x="869.5" y="505.5557">- avis personnel</text><rect fill="#F1F1F1" height="33.9688" rx="12.5" ry="12.5" style="stroke:#181818;stroke-width:0.5;" width="125" x="850" y="582.3857"/><text fill="#000000" font-family="sans-serif" font-size="12" lengthAdjust="spacing" textLength="105" x="860" y="603.5244">&#233;valuer le besoin</text><polygon fill="#F1F1F1" points="890.5,636.3545,934.5,636.3545,946.5,648.3545,934.5,660.3545,890.5,660.3545,878.5,648.3545,890.5,636.3545" style="stroke:#181818;stroke-width:0.5;"/><text fill="#000000" font-family="sans-serif" font-size="11" lengthAdjust="spacing" textLength="44" x="890.5" y="652.1626">besoin?</text><rect fill="#F1F1F1" height="47.9375" rx="12.5" ry="12.5" style="stroke:#181818;stroke-width:0.5;" width="178" x="95.75" y="745.0698"/><text fill="#000000" font-family="sans-serif" font-size="12" lengthAdjust="spacing" textLength="87" x="105.75" y="766.2085">d&#233;cision achat</text><text fill="#000000" font-family="sans-serif" font-size="12" lengthAdjust="spacing" textLength="154" x="109.75" y="780.1772">produit de remplacement</text><rect fill="#FFDD00" height="33.9688" rx="12.5" ry="12.5" style="stroke:#181818;stroke-width:0.5;" width="211" x="79.25" y="828.0073"/><text fill="#000000" font-family="sans-serif" font-size="12" lengthAdjust="spacing" textLength="191" x="89.25" y="849.146">demander liste de distributeurs</text><rect fill="#F1F1F1" height="33.9688" rx="12.5" ry="12.5" style="stroke:#181818;stroke-width:0.5;" width="137" x="116.25" y="896.9761"/><text fill="#000000" font-family="sans-serif" font-size="12" lengthAdjust="spacing" textLength="117" x="126.25" y="918.1147">choisir et contacter</text><rect fill="#F1F1F1" height="33.9688" rx="12.5" ry="12.5" style="stroke:#181818;stroke-width:0.5;" width="103" x="133.25" y="965.9448"/><text fill="#000000" font-family="sans-serif" font-size="12" lengthAdjust="spacing" textLength="83" x="143.25" y="987.0835">&#233;tudier offres</text><polygon fill="#F1F1F1" points="135.75,1034.9136,233.75,1034.9136,245.75,1046.9136,233.75,1058.9136,135.75,1058.9136,123.75,1046.9136,135.75,1034.9136" style="stroke:#181818;stroke-width:0.5;"/><text fill="#000000" font-family="sans-serif" font-size="11" lengthAdjust="spacing" textLength="98" x="135.75" y="1050.7217">offre convenable</text><text fill="#000000" font-family="sans-serif" font-size="11" lengthAdjust="spacing" textLength="17" x="106.75" y="1044.3193">oui</text><text fill="#000000" font-family="sans-serif" font-size="11" lengthAdjust="spacing" textLength="21" x="245.75" y="1044.3193">non</text><rect fill="#F1F1F1" height="33.9688" rx="12.5" ry="12.5" style="stroke:#181818;stroke-width:0.5;" width="52" x="84" y="1068.9136"/><text fill="#000000" font-family="sans-serif" font-size="12" lengthAdjust="spacing" textLength="32" x="94" y="1090.0522">achat</text><rect fill="#FFDD00" height="33.9688" rx="12.5" ry="12.5" style="stroke:#181818;stroke-width:0.5;" width="124" x="48" y="1137.8823"/><text fill="#000000" font-family="sans-serif" font-size="12" lengthAdjust="spacing" textLength="104" x="58" y="1159.021">enregistrer achat</text><rect fill="#FF9900" height="33.9688" rx="12.5" ry="12.5" style="stroke:#181818;stroke-width:0.5;" width="135" x="192" y="1068.9136"/><text fill="#000000" font-family="sans-serif" font-size="12" lengthAdjust="spacing" textLength="115" x="202" y="1090.0522">enregistrer 'echec'</text><ellipse cx="259.5" cy="1147.8823" fill="none" rx="10" ry="10" style="stroke:#222222;stroke-width:1.5;"/><line style="stroke:#222222;stroke-width:2.5;" x1="253.3128" x2="265.6872" y1="1141.6951" y2="1154.0695"/><line style="stroke:#222222;stroke-width:2.5;" x1="265.6872" x2="253.3128" y1="1141.6951" y2="1154.0695"/><rect fill="#F1F1F1" height="47.9375" rx="12.5" ry="12.5" style="stroke:#181818;stroke-width:0.5;" width="107" x="420.25" y="719.4604"/><text fill="#000000" font-family="sans-serif" font-size="12" lengthAdjust="spacing" textLength="87" x="430.25" y="740.5991">d&#233;cision achat</text><text fill="#000000" font-family="sans-serif" font-size="12" lengthAdjust="spacing" textLength="61" x="434.25" y="754.5679">de pi&#232;ces</text><rect fill="#FFDD00" height="47.9375" rx="12.5" ry="12.5" style="stroke:#181818;stroke-width:0.5;" width="164" x="391.75" y="802.3979"/><text fill="#000000" font-family="sans-serif" font-size="12" lengthAdjust="spacing" textLength="144" x="401.75" y="823.5366">demander liste de mag.</text><text fill="#000000" font-family="sans-serif" font-size="12" lengthAdjust="spacing" textLength="129" x="405.75" y="837.5054">de pi&#232;ces d&#233;tach&#233;es</text><rect fill="#F1F1F1" height="33.9688" rx="12.5" ry="12.5" style="stroke:#181818;stroke-width:0.5;" width="137" x="405.25" y="885.3354"/><text fill="#000000" font-family="sans-serif" font-size="12" lengthAdjust="spacing" textLength="117" x="415.25" y="906.4741">choisir et contacter</text><rect fill="#F1F1F1" height="33.9688" rx="12.5" ry="12.5" style="stroke:#181818;stroke-width:0.5;" width="103" x="422.25" y="954.3042"/><text fill="#000000" font-family="sans-serif" font-size="12" lengthAdjust="spacing" textLength="83" x="432.25" y="975.4429">&#233;tudier offres</text><polygon fill="#F1F1F1" points="424.75,1023.2729,522.75,1023.2729,534.75,1035.2729,522.75,1047.2729,424.75,1047.2729,412.75,1035.2729,424.75,1023.2729" style="stroke:#181818;stroke-width:0.5;"/><text fill="#000000" font-family="sans-serif" font-size="11" lengthAdjust="spacing" textLength="98" x="424.75" y="1039.0811">offre convenable</text><text fill="#000000" font-family="sans-serif" font-size="11" lengthAdjust="spacing" textLength="17" x="395.75" y="1032.6787">oui</text><text fill="#000000" font-family="sans-serif" font-size="11" lengthAdjust="spacing" textLength="21" x="534.75" y="1032.6787">non</text><rect fill="#F1F1F1" height="33.9688" rx="12.5" ry="12.5" style="stroke:#181818;stroke-width:0.5;" width="52" x="373" y="1057.2729"/><text fill="#000000" font-family="sans-serif" font-size="12" lengthAdjust="spacing" textLength="32" x="383" y="1078.4116">achat</text><rect fill="#FFDD00" height="33.9688" rx="12.5" ry="12.5" style="stroke:#181818;stroke-width:0.5;" width="124" x="337" y="1126.2417"/><text fill="#000000" font-family="sans-serif" font-size="12" lengthAdjust="spacing" textLength="104" x="347" y="1147.3804">enregistrer achat</text><rect fill="#FF9900" height="33.9688" rx="12.5" ry="12.5" style="stroke:#181818;stroke-width:0.5;" width="135" x="481" y="1057.2729"/><text fill="#000000" font-family="sans-serif" font-size="12" lengthAdjust="spacing" textLength="115" x="491" y="1078.4116">enregistrer 'echec'</text><ellipse cx="548.5" cy="1136.2417" fill="none" rx="10" ry="10" style="stroke:#222222;stroke-width:1.5;"/><line style="stroke:#222222;stroke-width:2.5;" x1="542.3128" x2="554.6872" y1="1130.0545" y2="1142.4289"/><line style="stroke:#222222;stroke-width:2.5;" x1="554.6872" x2="542.3128" y1="1130.0545" y2="1142.4289"/><rect fill="#F1F1F1" height="33.9688" rx="12.5" ry="12.5" style="stroke:#181818;stroke-width:0.5;" width="146" x="765.875" y="732.2651"/><text fill="#000000" font-family="sans-serif" font-size="12" lengthAdjust="spacing" textLength="126" x="775.875" y="753.4038">r&#233;paration autonome</text><rect fill="#98FB98" height="33.9688" rx="12.5" ry="12.5" style="stroke:#181818;stroke-width:0.5;" width="66" x="805.875" y="850.8433"/><text fill="#000000" font-family="sans-serif" font-size="12" lengthAdjust="spacing" textLength="46" x="815.875" y="871.9819">r&#233;parer</text><rect fill="#F1F1F1" height="33.9688" rx="12.5" ry="12.5" style="stroke:#181818;stroke-width:0.5;" width="103" x="787.375" y="919.812"/><text fill="#000000" font-family="sans-serif" font-size="12" lengthAdjust="spacing" textLength="83" x="797.375" y="940.9507">tester produit</text><polygon fill="#F1F1F1" points="797.375,801.2339,880.375,801.2339,892.375,814.0386,880.375,826.8433,797.375,826.8433,785.375,814.0386,797.375,801.2339" style="stroke:#181818;stroke-width:0.5;"/><text fill="#000000" font-family="sans-serif" font-size="11" lengthAdjust="spacing" textLength="79" x="797.375" y="811.4443">non repare et</text><text fill="#000000" font-family="sans-serif" font-size="11" lengthAdjust="spacing" textLength="74" x="797.375" y="824.249">non abandon</text><polygon fill="#F1F1F1" points="798.375,1012.7808,879.375,1012.7808,891.375,1024.7808,879.375,1036.7808,798.375,1036.7808,786.375,1024.7808,798.375,1012.7808" style="stroke:#181818;stroke-width:0.5;"/><text fill="#000000" font-family="sans-serif" font-size="11" lengthAdjust="spacing" textLength="81" x="798.375" y="1028.5889">produit r&#233;par&#233;</text><text fill="#000000" font-family="sans-serif" font-size="11" lengthAdjust="spacing" textLength="17" x="769.375" y="1022.1865">oui</text><text fill="#000000" font-family="sans-serif" font-size="11" lengthAdjust="spacing" textLength="21" x="891.375" y="1022.1865">non</text><rect fill="#FFDD00" height="33.9688" rx="12.5" ry="12.5" style="stroke:#181818;stroke-width:0.5;" width="154" x="626" y="1046.7808"/><text fill="#000000" font-family="sans-serif" font-size="12" lengthAdjust="spacing" textLength="134" x="636" y="1067.9194">enregistrer r&#233;paration</text><polygon fill="#F1F1F1" points="931.75,1046.7808,1017.75,1046.7808,1029.75,1058.7808,1017.75,1070.7808,931.75,1070.7808,919.75,1058.7808,931.75,1046.7808" style="stroke:#181818;stroke-width:0.5;"/><text fill="#000000" font-family="sans-serif" font-size="11" lengthAdjust="spacing" textLength="86" x="931.75" y="1062.5889">aide souhait&#233;e</text><text fill="#000000" font-family="sans-serif" font-size="11" lengthAdjust="spacing" textLength="21" x="898.75" y="1056.1865">non</text><text fill="#000000" font-family="sans-serif" font-size="11" lengthAdjust="spacing" textLength="17" x="1029.75" y="1056.1865">oui</text><rect fill="#FF9900" height="33.9688" rx="12.5" ry="12.5" style="stroke:#181818;stroke-width:0.5;" width="135" x="810" y="1080.7808"/><text fill="#000000" font-family="sans-serif" font-size="12" lengthAdjust="spacing" textLength="115" x="820" y="1101.9194">enregistrer 'echec'</text><ellipse cx="877.5" cy="1159.7495" fill="none" rx="10" ry="10" style="stroke:#222222;stroke-width:1.5;"/><line style="stroke:#222222;stroke-width:2.5;" x1="871.3128" x2="883.6872" y1="1153.5623" y2="1165.9367"/><line style="stroke:#222222;stroke-width:2.5;" x1="883.6872" x2="871.3128" y1="1153.5623" y2="1165.9367"/><rect fill="#AAEEFF" height="47.9375" rx="12.5" ry="12.5" style="stroke:#181818;stroke-width:0.5;" width="214" x="965" y="1080.7808"/><text fill="#000000" font-family="sans-serif" font-size="12" lengthAdjust="spacing" textLength="143" x="975" y="1101.9194">dmd rdz-vs repair caf&#233;.</text><text fill="#000000" font-family="sans-serif" font-size="12" lengthAdjust="spacing" textLength="4" x="975" y="1115.8882">&#160;</text><text fill="#000000" font-family="sans-serif" font-size="12" font-weight="bold" lengthAdjust="spacing" textLength="190" x="979" y="1115.8882">+besoin accompagnement</text><ellipse cx="1072" cy="1173.7183" fill="none" rx="10" ry="10" style="stroke:#222222;stroke-width:1.5;"/><line style="stroke:#222222;stroke-width:2.5;" x1="1065.8128" x2="1078.1872" y1="1167.5311" y2="1179.9054"/><line style="stroke:#222222;stroke-width:2.5;" x1="1078.1872" x2="1065.8128" y1="1167.5311" y2="1179.9054"/><rect fill="#FFDD00" height="47.9375" rx="12.5" ry="12.5" style="stroke:#181818;stroke-width:0.5;" width="93" x="1210" y="732.2651"/><text fill="#000000" font-family="sans-serif" font-size="12" lengthAdjust="spacing" textLength="73" x="1220" y="753.4038">prendre rdv</text><text fill="#000000" font-family="sans-serif" font-size="12" lengthAdjust="spacing" textLength="66" x="1224" y="767.3726">repair caf&#233;</text><rect fill="#FF9900" height="33.9688" rx="12.5" ry="12.5" style="stroke:#181818;stroke-width:0.5;" width="135" x="1189" y="1363.6362"/><text fill="#000000" font-family="sans-serif" font-size="12" lengthAdjust="spacing" textLength="115" x="1199" y="1384.7749">enregistrer 'echec'</text><ellipse cx="1256.5" cy="1427.605" fill="none" rx="10" ry="10" style="stroke:#222222;stroke-width:1.5;"/><line style="stroke:#222222;stroke-width:2.5;" x1="1250.3128" x2="1262.6872" y1="1421.4178" y2="1433.7922"/><line style="stroke:#222222;stroke-width:2.5;" x1="1262.6872" x2="1250.3128" y1="1421.4178" y2="1433.7922"/><polygon fill="#F1F1F1" points="1212,1315.2339,1301,1315.2339,1313,1327.2339,1301,1339.2339,1212,1339.2339,1200,1327.2339,1212,1315.2339" style="stroke:#181818;stroke-width:0.5;"/><text fill="#000000" font-family="sans-serif" font-size="11" lengthAdjust="spacing" textLength="17" x="1260.5" y="1349.4443">oui</text><text fill="#000000" font-family="sans-serif" font-size="11" lengthAdjust="spacing" textLength="89" x="1212" y="1331.042">arret reparation</text><polygon fill="#F1F1F1" points="912.5,1484.0073,912.5,1484.0073,924.5,1496.0073,912.5,1508.0073,912.5,1508.0073,900.5,1496.0073,912.5,1484.0073" style="stroke:#181818;stroke-width:0.5;"/><polygon fill="#F1F1F1" points="857,538.3857,968,538.3857,980,550.3857,968,562.3857,857,562.3857,845,550.3857,857,538.3857" style="stroke:#181818;stroke-width:0.5;"/><text fill="#000000" font-family="sans-serif" font-size="11" lengthAdjust="spacing" textLength="111" x="857" y="554.1938">besoin non satisfait</text><rect fill="#FFDD00" height="33.9688" rx="12.5" ry="12.5" style="stroke:#181818;stroke-width:0.5;" width="173" x="826" y="1550.0073"/><text fill="#000000" font-family="sans-serif" font-size="12" lengthAdjust="spacing" textLength="153" x="836" y="1571.146">clore l'acte de r&#233;paration</text><ellipse cx="912.5" cy="1613.9761" fill="none" rx="10" ry="10" style="stroke:#222222;stroke-width:1.5;"/><line style="stroke:#222222;stroke-width:2.5;" x1="906.3128" x2="918.6872" y1="1607.7889" y2="1620.1633"/><line style="stroke:#222222;stroke-width:2.5;" x1="918.6872" x2="906.3128" y1="1607.7889" y2="1620.1633"/><line style="stroke:#000000;stroke-width:1.5;" x1="15" x2="15" y1="12.7451" y2="1623.9761"/><rect fill="#FAEBD7" height="1611.231" style="stroke:#FAEBD7;stroke-width:1.0;" width="609" x="1396.5" y="12.7451"/><rect fill="#98FB98" height="47.9375" rx="12.5" ry="12.5" style="stroke:#181818;stroke-width:0.5;" width="115" x="1579" y="864.812"/><text fill="#000000" font-family="sans-serif" font-size="12" lengthAdjust="spacing" textLength="62" x="1589" y="885.9507">r&#233;paration</text><text fill="#000000" font-family="sans-serif" font-size="12" lengthAdjust="spacing" textLength="91" x="1593" y="899.9194">avec utilisateur</text><rect fill="#F1F1F1" height="33.9688" rx="12.5" ry="12.5" style="stroke:#181818;stroke-width:0.5;" width="103" x="1585" y="947.7495"/><text fill="#000000" font-family="sans-serif" font-size="12" lengthAdjust="spacing" textLength="83" x="1595" y="968.8882">tester produit</text><polygon fill="#F1F1F1" points="1595,815.2026,1678,815.2026,1690,828.0073,1678,840.812,1595,840.812,1583,828.0073,1595,815.2026" style="stroke:#181818;stroke-width:0.5;"/><text fill="#000000" font-family="sans-serif" font-size="11" lengthAdjust="spacing" textLength="79" x="1595" y="825.4131">non repare et</text><text fill="#000000" font-family="sans-serif" font-size="11" lengthAdjust="spacing" textLength="74" x="1595" y="838.2178">non abandon</text><polygon fill="#F1F1F1" points="1596,1040.7183,1677,1040.7183,1689,1052.7183,1677,1064.7183,1596,1064.7183,1584,1052.7183,1596,1040.7183" style="stroke:#181818;stroke-width:0.5;"/><text fill="#000000" font-family="sans-serif" font-size="11" lengthAdjust="spacing" textLength="81" x="1596" y="1056.5264">produit r&#233;par&#233;</text><text fill="#000000" font-family="sans-serif" font-size="11" lengthAdjust="spacing" textLength="17" x="1567" y="1050.124">oui</text><text fill="#000000" font-family="sans-serif" font-size="11" lengthAdjust="spacing" textLength="21" x="1689" y="1050.124">non</text><rect fill="#FFDD00" height="33.9688" rx="12.5" ry="12.5" style="stroke:#181818;stroke-width:0.5;" width="154" x="1402.5" y="1074.7183"/><text fill="#000000" font-family="sans-serif" font-size="12" lengthAdjust="spacing" textLength="134" x="1412.5" y="1095.8569">enregistrer r&#233;paration</text><ellipse cx="1479.5" cy="1153.687" fill="none" rx="10" ry="10" style="stroke:#222222;stroke-width:1.5;"/><line style="stroke:#222222;stroke-width:2.5;" x1="1473.3128" x2="1485.6872" y1="1147.4998" y2="1159.8742"/><line style="stroke:#222222;stroke-width:2.5;" x1="1485.6872" x2="1473.3128" y1="1147.4998" y2="1159.8742"/><rect fill="#FF9900" height="33.9688" rx="12.5" ry="12.5" style="stroke:#181818;stroke-width:0.5;" width="135" x="1726" y="1074.7183"/><text fill="#000000" font-family="sans-serif" font-size="12" lengthAdjust="spacing" textLength="115" x="1736" y="1095.8569">enregistrer 'echec'</text><polygon fill="#F1F1F1" points="1739.5,1143.687,1847.5,1143.687,1859.5,1155.687,1847.5,1167.687,1739.5,1167.687,1727.5,1155.687,1739.5,1143.687" style="stroke:#181818;stroke-width:0.5;"/><text fill="#000000" font-family="sans-serif" font-size="11" lengthAdjust="spacing" textLength="108" x="1739.5" y="1159.4951">analyser probl&#232;me</text><rect fill="#F1F1F1" height="33.9688" rx="12.5" ry="12.5" style="stroke:#181818;stroke-width:0.5;" width="111" x="1576.5" y="1203.2964"/><text fill="#000000" font-family="sans-serif" font-size="12" lengthAdjust="spacing" textLength="91" x="1586.5" y="1224.4351">identifier pi&#232;ce</text><rect fill="#F1F1F1" height="47.9375" rx="12.5" ry="12.5" style="stroke:#181818;stroke-width:0.5;" width="137" x="1707.5" y="1203.2964"/><text fill="#000000" font-family="sans-serif" font-size="12" lengthAdjust="spacing" textLength="117" x="1717.5" y="1224.4351">lister comp&#233;tences</text><text fill="#000000" font-family="sans-serif" font-size="12" lengthAdjust="spacing" textLength="74" x="1721.5" y="1238.4038">n&#233;cessaires</text><rect fill="#F1F1F1" height="47.9375" rx="12.5" ry="12.5" style="stroke:#181818;stroke-width:0.5;" width="103" x="1876" y="1203.2964"/><text fill="#000000" font-family="sans-serif" font-size="12" lengthAdjust="spacing" textLength="70" x="1886" y="1224.4351">guider vers</text><text fill="#000000" font-family="sans-serif" font-size="12" lengthAdjust="spacing" textLength="79" x="1890" y="1238.4038">achat produit</text><polygon fill="#F1F1F1" points="1793.5,1271.2339,1793.5,1271.2339,1805.5,1283.2339,1793.5,1295.2339,1793.5,1295.2339,1781.5,1283.2339,1793.5,1271.2339" style="stroke:#181818;stroke-width:0.5;"/><line style="stroke:#000000;stroke-width:1.5;" x1="1396.5" x2="1396.5" y1="12.7451" y2="1623.9761"/><line style="stroke:#000000;stroke-width:1.5;" x1="2005.5" x2="2005.5" y1="12.7451" y2="1623.9761"/><line style="stroke:#181818;stroke-width:1.0;" x1="912.5" x2="912.5" y1="58.6982" y2="78.6982"/><polygon fill="#181818" points="908.5,68.6982,912.5,78.6982,916.5,68.6982,912.5,72.6982" style="stroke:#181818;stroke-width:1.0;"/><line style="stroke:#181818;stroke-width:1.0;" x1="838" x2="838" y1="134.167" y2="152.667"/><polygon fill="#181818" points="834,142.667,838,152.667,842,142.667,838,146.667" style="stroke:#181818;stroke-width:1.0;"/><line style="stroke:#181818;stroke-width:1.0;" x1="979" x2="979" y1="134.167" y2="152.667"/><polygon fill="#181818" points="975,142.667,979,152.667,983,142.667,979,146.667" style="stroke:#181818;stroke-width:1.0;"/><line style="stroke:#181818;stroke-width:1.0;" x1="838" x2="838" y1="186.6357" y2="206.6357"/><polygon fill="#181818" points="834,196.6357,838,206.6357,842,196.6357,838,200.6357" style="stroke:#181818;stroke-width:1.0;"/><line style="stroke:#181818;stroke-width:1.0;" x1="979" x2="979" y1="186.6357" y2="206.6357"/><polygon fill="#181818" points="975,196.6357,979,206.6357,983,196.6357,979,200.6357" style="stroke:#181818;stroke-width:1.0;"/><line style="stroke:#181818;stroke-width:1.0;" x1="912.5" x2="912.5" y1="112.667" y2="132.667"/><polygon fill="#181818" points="908.5,122.667,912.5,132.667,916.5,122.667,912.5,126.667" style="stroke:#181818;stroke-width:1.0;"/><line style="stroke:#181818;stroke-width:1.0;" x1="912.5" x2="912.5" y1="208.1357" y2="226.6357"/><polygon fill="#181818" points="908.5,216.6357,912.5,226.6357,916.5,216.6357,912.5,220.6357" style="stroke:#181818;stroke-width:1.0;"/><line style="stroke:#181818;stroke-width:1.0;" x1="912.5" x2="912.5" y1="260.6045" y2="280.6045"/><polygon fill="#181818" points="908.5,270.6045,912.5,280.6045,916.5,270.6045,912.5,274.6045" style="stroke:#181818;stroke-width:1.0;"/><line style="stroke:#181818;stroke-width:1.0;" x1="912.5" x2="912.5" y1="314.5732" y2="334.5732"/><polygon fill="#181818" points="908.5,324.5732,912.5,334.5732,916.5,324.5732,912.5,328.5732" style="stroke:#181818;stroke-width:1.0;"/><line style="stroke:#181818;stroke-width:1.0;" x1="912.5" x2="912.5" y1="368.542" y2="388.542"/><polygon fill="#181818" points="908.5,378.542,912.5,388.542,916.5,378.542,912.5,382.542" style="stroke:#181818;stroke-width:1.0;"/><line style="stroke:#181818;stroke-width:1.0;" x1="912.5" x2="912.5" y1="422.5107" y2="442.5107"/><polygon fill="#181818" points="908.5,432.5107,912.5,442.5107,916.5,432.5107,912.5,436.5107" style="stroke:#181818;stroke-width:1.0;"/><line style="stroke:#181818;stroke-width:1.0;" x1="184.75" x2="184.75" y1="793.0073" y2="828.0073"/><polygon fill="#181818" points="180.75,818.0073,184.75,828.0073,188.75,818.0073,184.75,822.0073" style="stroke:#181818;stroke-width:1.0;"/><line style="stroke:#181818;stroke-width:1.0;" x1="184.75" x2="184.75" y1="861.9761" y2="896.9761"/><polygon fill="#181818" points="180.75,886.9761,184.75,896.9761,188.75,886.9761,184.75,890.9761" style="stroke:#181818;stroke-width:1.0;"/><line style="stroke:#181818;stroke-width:1.0;" x1="184.75" x2="184.75" y1="930.9448" y2="965.9448"/><polygon fill="#181818" points="180.75,955.9448,184.75,965.9448,188.75,955.9448,184.75,959.9448" style="stroke:#181818;stroke-width:1.0;"/><line style="stroke:#181818;stroke-width:1.0;" x1="110" x2="110" y1="1102.8823" y2="1137.8823"/><polygon fill="#181818" points="106,1127.8823,110,1137.8823,114,1127.8823,110,1131.8823" style="stroke:#181818;stroke-width:1.0;"/><line style="stroke:#181818;stroke-width:1.0;" x1="259.5" x2="259.5" y1="1102.8823" y2="1137.8823"/><polygon fill="#181818" points="255.5,1127.8823,259.5,1137.8823,263.5,1127.8823,259.5,1131.8823" style="stroke:#181818;stroke-width:1.0;"/><line style="stroke:#181818;stroke-width:1.0;" x1="123.75" x2="110" y1="1046.9136" y2="1046.9136"/><line style="stroke:#181818;stroke-width:1.0;" x1="110" x2="110" y1="1046.9136" y2="1068.9136"/><polygon fill="#181818" points="106,1058.9136,110,1068.9136,114,1058.9136,110,1062.9136" style="stroke:#181818;stroke-width:1.0;"/><line style="stroke:#181818;stroke-width:1.0;" x1="245.75" x2="259.5" y1="1046.9136" y2="1046.9136"/><line style="stroke:#181818;stroke-width:1.0;" x1="259.5" x2="259.5" y1="1046.9136" y2="1068.9136"/><polygon fill="#181818" points="255.5,1058.9136,259.5,1068.9136,263.5,1058.9136,259.5,1062.9136" style="stroke:#181818;stroke-width:1.0;"/><line style="stroke:#181818;stroke-width:1.0;" x1="110" x2="110" y1="1171.8511" y2="1496.0073"/><line style="stroke:#181818;stroke-width:1.0;" x1="110" x2="900.5" y1="1496.0073" y2="1496.0073"/><polygon fill="#181818" points="890.5,1492.0073,900.5,1496.0073,890.5,1500.0073,894.5,1496.0073" style="stroke:#181818;stroke-width:1.0;"/><line style="stroke:#181818;stroke-width:1.0;" x1="184.75" x2="184.75" y1="999.9136" y2="1034.9136"/><polygon fill="#181818" points="180.75,1024.9136,184.75,1034.9136,188.75,1024.9136,184.75,1028.9136" style="stroke:#181818;stroke-width:1.0;"/><line style="stroke:#181818;stroke-width:1.0;" x1="473.75" x2="473.75" y1="767.3979" y2="802.3979"/><polygon fill="#181818" points="469.75,792.3979,473.75,802.3979,477.75,792.3979,473.75,796.3979" style="stroke:#181818;stroke-width:1.0;"/><line style="stroke:#181818;stroke-width:1.0;" x1="473.75" x2="473.75" y1="850.3354" y2="885.3354"/><polygon fill="#181818" points="469.75,875.3354,473.75,885.3354,477.75,875.3354,473.75,879.3354" style="stroke:#181818;stroke-width:1.0;"/><line style="stroke:#181818;stroke-width:1.0;" x1="473.75" x2="473.75" y1="919.3042" y2="954.3042"/><polygon fill="#181818" points="469.75,944.3042,473.75,954.3042,477.75,944.3042,473.75,948.3042" style="stroke:#181818;stroke-width:1.0;"/><line style="stroke:#181818;stroke-width:1.0;" x1="399" x2="399" y1="1091.2417" y2="1126.2417"/><polygon fill="#181818" points="395,1116.2417,399,1126.2417,403,1116.2417,399,1120.2417" style="stroke:#181818;stroke-width:1.0;"/><line style="stroke:#181818;stroke-width:1.0;" x1="548.5" x2="548.5" y1="1091.2417" y2="1126.2417"/><polygon fill="#181818" points="544.5,1116.2417,548.5,1126.2417,552.5,1116.2417,548.5,1120.2417" style="stroke:#181818;stroke-width:1.0;"/><line style="stroke:#181818;stroke-width:1.0;" x1="412.75" x2="399" y1="1035.2729" y2="1035.2729"/><line style="stroke:#181818;stroke-width:1.0;" x1="399" x2="399" y1="1035.2729" y2="1057.2729"/><polygon fill="#181818" points="395,1047.2729,399,1057.2729,403,1047.2729,399,1051.2729" style="stroke:#181818;stroke-width:1.0;"/><line style="stroke:#181818;stroke-width:1.0;" x1="534.75" x2="548.5" y1="1035.2729" y2="1035.2729"/><line style="stroke:#181818;stroke-width:1.0;" x1="548.5" x2="548.5" y1="1035.2729" y2="1057.2729"/><polygon fill="#181818" points="544.5,1047.2729,548.5,1057.2729,552.5,1047.2729,548.5,1051.2729" style="stroke:#181818;stroke-width:1.0;"/><line style="stroke:#181818;stroke-width:1.0;" x1="399" x2="399" y1="1160.2104" y2="1172.2104"/><line style="stroke:#181818;stroke-width:1.0;" x1="399" x2="473.75" y1="1172.2104" y2="1172.2104"/><line style="stroke:#181818;stroke-width:1.0;" x1="473.75" x2="473.75" y1="1172.2104" y2="1496.0073"/><polygon fill="#181818" points="469.75,1486.0073,473.75,1496.0073,477.75,1486.0073,473.75,1490.0073" style="stroke:#181818;stroke-width:1.0;"/><line style="stroke:#181818;stroke-width:1.0;" x1="473.75" x2="473.75" y1="988.2729" y2="1023.2729"/><polygon fill="#181818" points="469.75,1013.2729,473.75,1023.2729,477.75,1013.2729,473.75,1017.2729" style="stroke:#181818;stroke-width:1.0;"/><line style="stroke:#181818;stroke-width:1.0;" x1="838.875" x2="838.875" y1="884.812" y2="919.812"/><polygon fill="#181818" points="834.875,909.812,838.875,919.812,842.875,909.812,838.875,913.812" style="stroke:#181818;stroke-width:1.0;"/><line style="stroke:#181818;stroke-width:1.0;" x1="838.875" x2="838.875" y1="826.8433" y2="850.8433"/><polygon fill="#181818" points="834.875,840.8433,838.875,850.8433,842.875,840.8433,838.875,844.8433" style="stroke:#181818;stroke-width:1.0;"/><line style="stroke:#181818;stroke-width:1.0;" x1="838.875" x2="838.875" y1="953.7808" y2="965.7808"/><line style="stroke:#181818;stroke-width:1.0;" x1="838.875" x2="904.375" y1="965.7808" y2="965.7808"/><polygon fill="#181818" points="900.375,899.9097,904.375,889.9097,908.375,899.9097,904.375,895.9097" style="stroke:#181818;stroke-width:1.0;"/><line style="stroke:#181818;stroke-width:1.0;" x1="904.375" x2="904.375" y1="814.0386" y2="965.7808"/><line style="stroke:#181818;stroke-width:1.0;" x1="904.375" x2="892.375" y1="814.0386" y2="814.0386"/><polygon fill="#181818" points="902.375,810.0386,892.375,814.0386,902.375,818.0386,898.375,814.0386" style="stroke:#181818;stroke-width:1.0;"/><line style="stroke:#181818;stroke-width:1.0;" x1="785.375" x2="773.375" y1="814.0386" y2="814.0386"/><polygon fill="#181818" points="769.375,885.9097,773.375,895.9097,777.375,885.9097,773.375,889.9097" style="stroke:#181818;stroke-width:1.0;"/><line style="stroke:#181818;stroke-width:1.0;" x1="773.375" x2="773.375" y1="814.0386" y2="977.7808"/><line style="stroke:#181818;stroke-width:1.0;" x1="773.375" x2="838.875" y1="977.7808" y2="977.7808"/><line style="stroke:#181818;stroke-width:1.0;" x1="838.875" x2="838.875" y1="977.7808" y2="1012.7808"/><polygon fill="#181818" points="834.875,1002.7808,838.875,1012.7808,842.875,1002.7808,838.875,1006.7808" style="stroke:#181818;stroke-width:1.0;"/><line style="stroke:#181818;stroke-width:1.0;" x1="838.875" x2="838.875" y1="766.2339" y2="801.2339"/><polygon fill="#181818" points="834.875,791.2339,838.875,801.2339,842.875,791.2339,838.875,795.2339" style="stroke:#181818;stroke-width:1.0;"/><line style="stroke:#181818;stroke-width:1.0;" x1="877.5" x2="877.5" y1="1114.7495" y2="1149.7495"/><polygon fill="#181818" points="873.5,1139.7495,877.5,1149.7495,881.5,1139.7495,877.5,1143.7495" style="stroke:#181818;stroke-width:1.0;"/><line style="stroke:#181818;stroke-width:1.0;" x1="1072" x2="1072" y1="1128.7183" y2="1163.7183"/><polygon fill="#181818" points="1068,1153.7183,1072,1163.7183,1076,1153.7183,1072,1157.7183" style="stroke:#181818;stroke-width:1.0;"/><line style="stroke:#181818;stroke-width:1.0;" x1="919.75" x2="877.5" y1="1058.7808" y2="1058.7808"/><line style="stroke:#181818;stroke-width:1.0;" x1="877.5" x2="877.5" y1="1058.7808" y2="1080.7808"/><polygon fill="#181818" points="873.5,1070.7808,877.5,1080.7808,881.5,1070.7808,877.5,1074.7808" style="stroke:#181818;stroke-width:1.0;"/><line style="stroke:#181818;stroke-width:1.0;" x1="1029.75" x2="1072" y1="1058.7808" y2="1058.7808"/><line style="stroke:#181818;stroke-width:1.0;" x1="1072" x2="1072" y1="1058.7808" y2="1080.7808"/><polygon fill="#181818" points="1068,1070.7808,1072,1080.7808,1076,1070.7808,1072,1074.7808" style="stroke:#181818;stroke-width:1.0;"/><line style="stroke:#181818;stroke-width:1.0;" x1="786.375" x2="703" y1="1024.7808" y2="1024.7808"/><line style="stroke:#181818;stroke-width:1.0;" x1="703" x2="703" y1="1024.7808" y2="1046.7808"/><polygon fill="#181818" points="699,1036.7808,703,1046.7808,707,1036.7808,703,1040.7808" style="stroke:#181818;stroke-width:1.0;"/><line style="stroke:#181818;stroke-width:1.0;" x1="891.375" x2="974.75" y1="1024.7808" y2="1024.7808"/><line style="stroke:#181818;stroke-width:1.0;" x1="974.75" x2="974.75" y1="1024.7808" y2="1046.7808"/><polygon fill="#181818" points="970.75,1036.7808,974.75,1046.7808,978.75,1036.7808,974.75,1040.7808" style="stroke:#181818;stroke-width:1.0;"/><line style="stroke:#181818;stroke-width:1.0;" x1="703" x2="703" y1="1080.7495" y2="1207.7183"/><line style="stroke:#181818;stroke-width:1.0;" x1="703" x2="838.875" y1="1207.7183" y2="1207.7183"/><line style="stroke:#181818;stroke-width:1.0;" x1="838.875" x2="838.875" y1="1207.7183" y2="1496.0073"/><polygon fill="#181818" points="834.875,1486.0073,838.875,1496.0073,842.875,1486.0073,838.875,1490.0073" style="stroke:#181818;stroke-width:1.0;"/><line style="stroke:#181818;stroke-width:1.0;" x1="1256.5" x2="1256.5" y1="1397.605" y2="1417.605"/><polygon fill="#181818" points="1252.5,1407.605,1256.5,1417.605,1260.5,1407.605,1256.5,1411.605" style="stroke:#181818;stroke-width:1.0;"/><line style="stroke:#181818;stroke-width:1.0;" x1="1256.5" x2="1256.5" y1="1339.2339" y2="1363.6362"/><polygon fill="#181818" points="1252.5,1353.6362,1256.5,1363.6362,1260.5,1353.6362,1256.5,1357.6362" style="stroke:#181818;stroke-width:1.0;"/><line style="stroke:#181818;stroke-width:1.0;" x1="1313" x2="1334" y1="1327.2339" y2="1327.2339"/><polygon fill="#181818" points="1330,1444.1206,1334,1454.1206,1338,1444.1206,1334,1448.1206" style="stroke:#181818;stroke-width:1.0;"/><line style="stroke:#181818;stroke-width:1.0;" x1="1334" x2="1334" y1="1327.2339" y2="1496.0073"/><line style="stroke:#181818;stroke-width:1.0;" x1="1334" x2="924.5" y1="1496.0073" y2="1496.0073"/><polygon fill="#181818" points="934.5,1492.0073,924.5,1496.0073,934.5,1500.0073,930.5,1496.0073" style="stroke:#181818;stroke-width:1.0;"/><line style="stroke:#181818;stroke-width:1.0;" x1="878.5" x2="184.75" y1="648.3545" y2="648.3545"/><line style="stroke:#181818;stroke-width:1.0;" x1="184.75" x2="184.75" y1="648.3545" y2="745.0698"/><polygon fill="#181818" points="180.75,735.0698,184.75,745.0698,188.75,735.0698,184.75,739.0698" style="stroke:#181818;stroke-width:1.0;"/><text fill="#000000" font-family="sans-serif" font-size="11" lengthAdjust="spacing" textLength="74" x="184.75" y="686.6592">achat produit</text><text fill="#000000" font-family="sans-serif" font-size="11" lengthAdjust="spacing" textLength="103" x="188.75" y="699.4639">de remplacement</text><text fill="#000000" font-family="sans-serif" font-size="11" lengthAdjust="spacing" textLength="81" x="184.75" y="712.2686">(panne fatale)</text><line style="stroke:#181818;stroke-width:1.0;" x1="946.5" x2="1256.5" y1="648.3545" y2="648.3545"/><line style="stroke:#181818;stroke-width:1.0;" x1="1256.5" x2="1256.5" y1="648.3545" y2="732.2651"/><polygon fill="#181818" points="1252.5,722.2651,1256.5,732.2651,1260.5,722.2651,1256.5,726.2651" style="stroke:#181818;stroke-width:1.0;"/><text fill="#000000" font-family="sans-serif" font-size="11" lengthAdjust="spacing" textLength="38" x="1256.5" y="686.6592">besoin</text><text fill="#000000" font-family="sans-serif" font-size="11" lengthAdjust="spacing" textLength="103" x="1260.5" y="699.4639">accompagnement</text><line style="stroke:#181818;stroke-width:1.0;" x1="473.75" x2="473.75" y1="648.3545" y2="719.4604"/><polygon fill="#181818" points="469.75,709.4604,473.75,719.4604,477.75,709.4604,473.75,713.4604" style="stroke:#181818;stroke-width:1.0;"/><text fill="#000000" font-family="sans-serif" font-size="11" lengthAdjust="spacing" textLength="46" x="473.75" y="681.6592">pi&#232;ce(s)</text><line style="stroke:#181818;stroke-width:1.0;" x1="838.875" x2="838.875" y1="648.3545" y2="732.2651"/><polygon fill="#181818" points="834.875,722.2651,838.875,732.2651,842.875,722.2651,838.875,726.2651" style="stroke:#181818;stroke-width:1.0;"/><text fill="#000000" font-family="sans-serif" font-size="11" lengthAdjust="spacing" textLength="58" x="838.875" y="681.6592">reparation</text><text fill="#000000" font-family="sans-serif" font-size="11" lengthAdjust="spacing" textLength="58" x="842.875" y="694.4639">autonome</text><line style="stroke:#181818;stroke-width:1.0;" x1="912.5" x2="912.5" y1="616.3545" y2="636.3545"/><polygon fill="#181818" points="908.5,626.3545,912.5,636.3545,916.5,626.3545,912.5,630.3545" style="stroke:#181818;stroke-width:1.0;"/><line style="stroke:#181818;stroke-width:1.0;" x1="912.5" x2="912.5" y1="562.3857" y2="582.3857"/><polygon fill="#181818" points="908.5,572.3857,912.5,582.3857,916.5,572.3857,912.5,576.3857" style="stroke:#181818;stroke-width:1.0;"/><line style="stroke:#181818;stroke-width:1.0;" x1="912.5" x2="912.5" y1="1508.0073" y2="1518.0073"/><line style="stroke:#181818;stroke-width:1.0;" x1="912.5" x2="1377.5" y1="1518.0073" y2="1518.0073"/><polygon fill="#181818" points="1373.5,1150.6401,1377.5,1140.6401,1381.5,1150.6401,1377.5,1146.6401" style="stroke:#181818;stroke-width:1.0;"/><line style="stroke:#181818;stroke-width:1.0;" x1="1377.5" x2="1377.5" y1="550.3857" y2="1518.0073"/><line style="stroke:#181818;stroke-width:1.0;" x1="1377.5" x2="980" y1="550.3857" y2="550.3857"/><polygon fill="#181818" points="990,546.3857,980,550.3857,990,554.3857,986,550.3857" style="stroke:#181818;stroke-width:1.0;"/><line style="stroke:#181818;stroke-width:1.0;" x1="845" x2="34" y1="550.3857" y2="550.3857"/><polygon fill="#181818" points="30,1136.6401,34,1146.6401,38,1136.6401,34,1140.6401" style="stroke:#181818;stroke-width:1.0;"/><line style="stroke:#181818;stroke-width:1.0;" x1="34" x2="34" y1="550.3857" y2="1530.0073"/><line style="stroke:#181818;stroke-width:1.0;" x1="34" x2="912.5" y1="1530.0073" y2="1530.0073"/><line style="stroke:#181818;stroke-width:1.0;" x1="912.5" x2="912.5" y1="1530.0073" y2="1550.0073"/><polygon fill="#181818" points="908.5,1540.0073,912.5,1550.0073,916.5,1540.0073,912.5,1544.0073" style="stroke:#181818;stroke-width:1.0;"/><line style="stroke:#181818;stroke-width:1.0;" x1="912.5" x2="912.5" y1="518.3857" y2="538.3857"/><polygon fill="#181818" points="908.5,528.3857,912.5,538.3857,916.5,528.3857,912.5,532.3857" style="stroke:#181818;stroke-width:1.0;"/><line style="stroke:#181818;stroke-width:1.0;" x1="912.5" x2="912.5" y1="1583.9761" y2="1603.9761"/><polygon fill="#181818" points="908.5,1593.9761,912.5,1603.9761,916.5,1593.9761,912.5,1597.9761" style="stroke:#181818;stroke-width:1.0;"/><line style="stroke:#181818;stroke-width:1.0;" x1="1636.5" x2="1636.5" y1="912.7495" y2="947.7495"/><polygon fill="#181818" points="1632.5,937.7495,1636.5,947.7495,1640.5,937.7495,1636.5,941.7495" style="stroke:#181818;stroke-width:1.0;"/><line style="stroke:#181818;stroke-width:1.0;" x1="1636.5" x2="1636.5" y1="840.812" y2="864.812"/><polygon fill="#181818" points="1632.5,854.812,1636.5,864.812,1640.5,854.812,1636.5,858.812" style="stroke:#181818;stroke-width:1.0;"/><line style="stroke:#181818;stroke-width:1.0;" x1="1636.5" x2="1636.5" y1="981.7183" y2="993.7183"/><line style="stroke:#181818;stroke-width:1.0;" x1="1636.5" x2="1706" y1="993.7183" y2="993.7183"/><polygon fill="#181818" points="1702,920.8628,1706,910.8628,1710,920.8628,1706,916.8628" style="stroke:#181818;stroke-width:1.0;"/><line style="stroke:#181818;stroke-width:1.0;" x1="1706" x2="1706" y1="828.0073" y2="993.7183"/><line style="stroke:#181818;stroke-width:1.0;" x1="1706" x2="1690" y1="828.0073" y2="828.0073"/><polygon fill="#181818" points="1700,824.0073,1690,828.0073,1700,832.0073,1696,828.0073" style="stroke:#181818;stroke-width:1.0;"/><line style="stroke:#181818;stroke-width:1.0;" x1="1583" x2="1567" y1="828.0073" y2="828.0073"/><polygon fill="#181818" points="1563,906.8628,1567,916.8628,1571,906.8628,1567,910.8628" style="stroke:#181818;stroke-width:1.0;"/><line style="stroke:#181818;stroke-width:1.0;" x1="1567" x2="1567" y1="828.0073" y2="1005.7183"/><line style="stroke:#181818;stroke-width:1.0;" x1="1567" x2="1636.5" y1="1005.7183" y2="1005.7183"/><line style="stroke:#181818;stroke-width:1.0;" x1="1636.5" x2="1636.5" y1="1005.7183" y2="1040.7183"/><polygon fill="#181818" points="1632.5,1030.7183,1636.5,1040.7183,1640.5,1030.7183,1636.5,1034.7183" style="stroke:#181818;stroke-width:1.0;"/><line style="stroke:#181818;stroke-width:1.0;" x1="1479.5" x2="1479.5" y1="1108.687" y2="1143.687"/><polygon fill="#181818" points="1475.5,1133.687,1479.5,1143.687,1483.5,1133.687,1479.5,1137.687" style="stroke:#181818;stroke-width:1.0;"/><line style="stroke:#181818;stroke-width:1.0;" x1="1727.5" x2="1632" y1="1155.687" y2="1155.687"/><line style="stroke:#181818;stroke-width:1.0;" x1="1632" x2="1632" y1="1155.687" y2="1203.2964"/><polygon fill="#181818" points="1628,1193.2964,1632,1203.2964,1636,1193.2964,1632,1197.2964" style="stroke:#181818;stroke-width:1.0;"/><text fill="#000000" font-family="sans-serif" font-size="11" lengthAdjust="spacing" textLength="50" x="1632" y="1183.2998">pb pi&#232;ce</text><line style="stroke:#181818;stroke-width:1.0;" x1="1859.5" x2="1927.5" y1="1155.687" y2="1155.687"/><line style="stroke:#181818;stroke-width:1.0;" x1="1927.5" x2="1927.5" y1="1155.687" y2="1203.2964"/><polygon fill="#181818" points="1923.5,1193.2964,1927.5,1203.2964,1931.5,1193.2964,1927.5,1197.2964" style="stroke:#181818;stroke-width:1.0;"/><text fill="#000000" font-family="sans-serif" font-size="11" lengthAdjust="spacing" textLength="73" x="1927.5" y="1183.2998">panne fatale</text><line style="stroke:#181818;stroke-width:1.0;" x1="1793.5" x2="1793.5" y1="1167.687" y2="1179.5568"/><line style="stroke:#181818;stroke-width:1.0;" x1="1793.5" x2="1776" y1="1179.5568" y2="1179.5568"/><line style="stroke:#181818;stroke-width:1.0;" x1="1776" x2="1776" y1="1179.5568" y2="1203.2964"/><polygon fill="#181818" points="1772,1193.2964,1776,1203.2964,1780,1193.2964,1776,1197.2964" style="stroke:#181818;stroke-width:1.0;"/><text fill="#000000" font-family="sans-serif" font-size="11" lengthAdjust="spacing" textLength="90" x="1776" y="1184.2998">pb comp&#233;tence</text><line style="stroke:#181818;stroke-width:1.0;" x1="1632" x2="1632" y1="1237.2651" y2="1283.2339"/><line style="stroke:#181818;stroke-width:1.0;" x1="1632" x2="1781.5" y1="1283.2339" y2="1283.2339"/><polygon fill="#181818" points="1771.5,1279.2339,1781.5,1283.2339,1771.5,1287.2339,1775.5,1283.2339" style="stroke:#181818;stroke-width:1.0;"/><line style="stroke:#181818;stroke-width:1.0;" x1="1927.5" x2="1927.5" y1="1251.2339" y2="1283.2339"/><line style="stroke:#181818;stroke-width:1.0;" x1="1927.5" x2="1805.5" y1="1283.2339" y2="1283.2339"/><polygon fill="#181818" points="1815.5,1279.2339,1805.5,1283.2339,1815.5,1287.2339,1811.5,1283.2339" style="stroke:#181818;stroke-width:1.0;"/><line style="stroke:#181818;stroke-width:1.0;" x1="1776" x2="1776" y1="1251.2339" y2="1256.2339"/><line style="stroke:#181818;stroke-width:1.0;" x1="1776" x2="1793.5" y1="1256.2339" y2="1256.2339"/><line style="stroke:#181818;stroke-width:1.0;" x1="1793.5" x2="1793.5" y1="1256.2339" y2="1271.2339"/><polygon fill="#181818" points="1789.5,1261.2339,1793.5,1271.2339,1797.5,1261.2339,1793.5,1265.2339" style="stroke:#181818;stroke-width:1.0;"/><line style="stroke:#181818;stroke-width:1.0;" x1="1793.5" x2="1793.5" y1="1108.687" y2="1143.687"/><polygon fill="#181818" points="1789.5,1133.687,1793.5,1143.687,1797.5,1133.687,1793.5,1137.687" style="stroke:#181818;stroke-width:1.0;"/><line style="stroke:#181818;stroke-width:1.0;" x1="1584" x2="1479.5" y1="1052.7183" y2="1052.7183"/><line style="stroke:#181818;stroke-width:1.0;" x1="1479.5" x2="1479.5" y1="1052.7183" y2="1074.7183"/><polygon fill="#181818" points="1475.5,1064.7183,1479.5,1074.7183,1483.5,1064.7183,1479.5,1068.7183" style="stroke:#181818;stroke-width:1.0;"/><line style="stroke:#181818;stroke-width:1.0;" x1="1689" x2="1793.5" y1="1052.7183" y2="1052.7183"/><line style="stroke:#181818;stroke-width:1.0;" x1="1793.5" x2="1793.5" y1="1052.7183" y2="1074.7183"/><polygon fill="#181818" points="1789.5,1064.7183,1793.5,1074.7183,1797.5,1064.7183,1793.5,1068.7183" style="stroke:#181818;stroke-width:1.0;"/><line style="stroke:#181818;stroke-width:1.0;" x1="1793.5" x2="1793.5" y1="1295.2339" y2="1300.2339"/><line style="stroke:#181818;stroke-width:1.0;" x1="1793.5" x2="1256.5" y1="1300.2339" y2="1300.2339"/><line style="stroke:#181818;stroke-width:1.0;" x1="1256.5" x2="1256.5" y1="1300.2339" y2="1315.2339"/><polygon fill="#181818" points="1252.5,1305.2339,1256.5,1315.2339,1260.5,1305.2339,1256.5,1309.2339" style="stroke:#181818;stroke-width:1.0;"/><line style="stroke:#181818;stroke-width:1.0;" x1="1256.5" x2="1256.5" y1="780.2026" y2="797.7026"/><line style="stroke:#181818;stroke-width:1.0;" x1="1256.5" x2="1636.5" y1="797.7026" y2="797.7026"/><line style="stroke:#181818;stroke-width:1.0;" x1="1636.5" x2="1636.5" y1="797.7026" y2="815.2026"/><polygon fill="#181818" points="1632.5,805.2026,1636.5,815.2026,1640.5,805.2026,1636.5,809.2026" style="stroke:#181818;stroke-width:1.0;"/><text fill="#000000" font-family="sans-serif" font-size="18" lengthAdjust="spacing" textLength="98" x="656.75" y="29.4531">Utilisateur</text><text fill="#000000" font-family="sans-serif" font-size="18" lengthAdjust="spacing" textLength="108" x="1647" y="29.4531">Repair Caf&#233;</text><!--SRC=[lLPBSjim3Dth56ooyATDcctiHIUJn3FTfjDsumrCGHQd5AIIbDEqFb1y3bsi82LByYUVPb6l4X9u01w0Hxqh32mp4AN5RsYSag0_9oAdoFvGL821J5pd52kdShgb-8jxq2XIhGYZzLUdjBBWi3Jho3emBXgmYml6uYIkDbA3GICA8CAJFz7fR7PpSt4niIXapaVIePb6jj3AjNVibIXIx6Jok5IkkHUm14L7hHQwUinm6Y75OXUhsgn0bvo01GwO5TN68KaKjZI2o-ZvjhYO0SNieIZ9JGQX4cyEAaOhE2QGLDMZGTivSIssr5oBSANBxSVQzWWei-LGn2WC5g2C5HAIQkDD9yueDhYx5XOrXum4_yv4h6oHarempwxQV6XEEUzVAkkVm4fPKQ2ndbNDUFUfqZXSeCqL2V8rS2as0UL6KKSBSr2RCCdtoibKD2wVHW5O0dTg2385jst7dEhyiqA3n0o9JuQXlo811nf7jQl_-Iv9PJs50ODz6vHzZ6dhypHdp0MJj2ZzkDdEOIBJd6COWSuFbODwgDfhxdaPUsxp90bTszweH0p3cNTR8S62anSkHUBpKlNA2CaVfeXaSEcJOl0z4zIUEEPzrFUwlDpp6g1CKGvwVXJt_-OSUtqeUEua3ktp33DJjQ5z3QaPBCztd0GZCeTfjS7_Il8nejzEzZyHtX1Ta-mtquIrPrg0rvdo37k4csgpDMYlExYmTY6NiE9SDXCs9_y_B9ZwWnmBtfYbGQG6kCzgYEVGUc5fnR0_7I7Q3jNRzQh1gisJL1-ZjLVQY-JwO5xcXCtB5BmKjMqzi7rrCuvjGPV3GGq1z-hgzdOscyHPB4py-snb6ssjfTNFzdZylj51aFuHW2K5pHcFNn6vsy6ZAra3p_UXZtDT6FRdaJ3nQauxQKwZzUaLEVMpnE-fShY-go-l_UKwUirK7KnIEyChbABiNch_rkpDL3TBByxGYtCJ5ggRcMVxldrpW40_MEmzvgDc6uj5eqlyQl6qCKM9LvdwR1eDThj7kSE9aCcvxuuOD5slZGSTOkzBW66359h-eMNMY7KLhUKcU3LxIvp-anXDbgNokhlY9thUQFKE_pKLModQ_R8AksOCzxmJf_scF4qoGqwtk3k1wewttp0wvxdI0w_iuNNUQ-fV]--></g></svg>