<?xml version="1.0" encoding="us-ascii" standalone="no"?><svg xmlns="http://www.w3.org/2000/svg" xmlns:xlink="http://www.w3.org/1999/xlink" contentStyleType="text/css" height="1079px" preserveAspectRatio="none" style="width:865px;height:1079px;background:#FFFFFF;" version="1.1" viewBox="0 0 865 1079" width="865px" zoomAndPan="magnify"><defs/><g><!--cluster SademaarSite--><g id="cluster_SademaarSite"><path d="M204.5,6 L318.5,6 A3.75,3.75 0 0 1 321,8.5 L328,28.2969 L764.5,28.2969 A2.5,2.5 0 0 1 767,30.7969 L767,1069.5 A2.5,2.5 0 0 1 764.5,1072 L204.5,1072 A2.5,2.5 0 0 1 202,1069.5 L202,8.5 A2.5,2.5 0 0 1 204.5,6 " fill="#EEFFEE" style="stroke:#000000;stroke-width:1.5;"/><line style="stroke:#000000;stroke-width:1.5;" x1="202" x2="328" y1="28.2969" y2="28.2969"/><text fill="#000000" font-family="sans-serif" font-size="14" font-weight="bold" lengthAdjust="spacing" textLength="113" x="206" y="20.9951">SademaarSite</text></g><g id="elem_enregistrerUser"><ellipse cx="387.7951" cy="483.2442" fill="#F1F1F1" rx="102.7951" ry="60.2442" style="stroke:#181818;stroke-width:0.5;"/><text fill="#000000" font-family="sans-serif" font-size="14" lengthAdjust="spacing" textLength="81" x="331.5451" y="449.4972">enregistrer</text><text fill="#000000" font-family="sans-serif" font-size="14" lengthAdjust="spacing" textLength="68" x="340.0451" y="465.7941">personne</text><line style="stroke:#181818;stroke-width:1.0;" x1="288.875" x2="486.7152" y1="469.0958" y2="469.0958"/><text fill="#000000" font-family="sans-serif" font-size="14" lengthAdjust="spacing" textLength="144" x="300.0451" y="486.0909">nom, prenom, email</text><text fill="#000000" font-family="sans-serif" font-size="14" lengthAdjust="spacing" textLength="55" x="344.5451" y="502.3878">adresse</text><text fill="#000000" font-family="sans-serif" font-size="14" lengthAdjust="spacing" textLength="99" x="322.5451" y="518.6847">comp&#233;tences</text></g><g id="elem_enregistrerCafe"><ellipse cx="388.0793" cy="101.8351" fill="#F1F1F1" rx="108.0793" ry="60.3351" style="stroke:#181818;stroke-width:0.5;"/><text fill="#000000" font-family="sans-serif" font-size="14" lengthAdjust="spacing" textLength="81" x="339.9407" y="63.8556">enregistrer</text><text fill="#000000" font-family="sans-serif" font-size="14" lengthAdjust="spacing" textLength="78" x="343.4407" y="80.1525">repair caf&#233;</text><line style="stroke:#181818;stroke-width:1.0;" x1="286.1375" x2="490.0212" y1="83.4543" y2="83.4543"/><text fill="#000000" font-family="sans-serif" font-size="14" lengthAdjust="spacing" textLength="55" x="352.9407" y="100.4494">adresse</text><text fill="#000000" font-family="sans-serif" font-size="14" lengthAdjust="spacing" textLength="142" x="309.4407" y="116.7463">familles de produits</text><text fill="#000000" font-family="sans-serif" font-size="14" lengthAdjust="spacing" textLength="152" x="304.4407" y="133.0431">horaires d'ouvertures</text></g><g id="elem_enregistrerPD"><ellipse cx="387.8796" cy="991.1603" fill="#F1F1F1" rx="142.8796" ry="64.6603" style="stroke:#181818;stroke-width:0.5;"/><text fill="#000000" font-family="sans-serif" font-size="14" lengthAdjust="spacing" textLength="81" x="342.1296" y="957.4132">enregistrer</text><text fill="#000000" font-family="sans-serif" font-size="14" lengthAdjust="spacing" textLength="166" x="301.6296" y="973.7101">mag. pi&#232;ces d&#233;tach&#233;es</text><line style="stroke:#181818;stroke-width:1.0;" x1="249.4624" x2="526.2969" y1="977.0119" y2="977.0119"/><text fill="#000000" font-family="sans-serif" font-size="14" lengthAdjust="spacing" textLength="55" x="355.1296" y="994.007">adresse</text><text fill="#000000" font-family="sans-serif" font-size="14" lengthAdjust="spacing" textLength="142" x="311.6296" y="1010.3039">familles de produits</text><text fill="#000000" font-family="sans-serif" font-size="14" lengthAdjust="spacing" textLength="191" x="287.1296" y="1026.6007">etats : neuf et/ou occasion</text></g><g id="elem_enregistrerDistri"><ellipse cx="388.0682" cy="832.1741" fill="#F1F1F1" rx="131.5682" ry="59.6741" style="stroke:#181818;stroke-width:0.5;"/><text fill="#000000" font-family="sans-serif" font-size="14" lengthAdjust="spacing" textLength="81" x="339.0775" y="792.8129">enregistrer</text><text fill="#000000" font-family="sans-serif" font-size="14" lengthAdjust="spacing" textLength="85" x="339.0775" y="809.1097">distributeur</text><line style="stroke:#181818;stroke-width:1.0;" x1="264.9245" x2="511.2118" y1="812.4115" y2="812.4115"/><text fill="#000000" font-family="sans-serif" font-size="14" lengthAdjust="spacing" textLength="55" x="352.0775" y="829.4066">adresse</text><text fill="#000000" font-family="sans-serif" font-size="14" lengthAdjust="spacing" textLength="142" x="308.5775" y="845.7035">familles de produits</text><text fill="#000000" font-family="sans-serif" font-size="14" lengthAdjust="spacing" textLength="191" x="284.0775" y="862.0004">etats : neuf et/ou occasion</text></g><g id="elem_analyserPanne"><ellipse cx="388.0536" cy="349.1361" fill="#F1F1F1" rx="170.0536" ry="39.1361" style="stroke:#181818;stroke-width:0.5;"/><text fill="#000000" font-family="sans-serif" font-size="14" lengthAdjust="spacing" textLength="108" x="320.0614" y="328.9254">analyser panne</text><line style="stroke:#181818;stroke-width:1.0;" x1="235.6912" x2="540.416" y1="332.2271" y2="332.2271"/><text fill="#000000" font-family="sans-serif" font-size="14" lengthAdjust="spacing" textLength="6" x="294.0614" y="349.2223">-</text><text fill="#000000" font-family="sans-serif" font-size="14" font-weight="bold" lengthAdjust="spacing" textLength="65" x="304.0614" y="349.2223">requiert</text><text fill="#000000" font-family="sans-serif" font-size="14" lengthAdjust="spacing" textLength="85" x="369.0614" y="349.2223">:documents</text><text fill="#000000" font-family="sans-serif" font-size="14" lengthAdjust="spacing" textLength="251" x="248.5614" y="365.5191">(mode d'emploi, doc technique, ...)</text></g><g id="elem_reparerPanne"><ellipse cx="388.1517" cy="227.8303" fill="#F1F1F1" rx="139.6517" ry="30.3303" style="stroke:#181818;stroke-width:0.5;"/><text fill="#000000" font-family="sans-serif" font-size="14" lengthAdjust="spacing" textLength="103" x="323.6338" y="216.5348">r&#233;parer panne</text><line style="stroke:#181818;stroke-width:1.0;" x1="254.4376" x2="521.8658" y1="219.8365" y2="219.8365"/><text fill="#000000" font-family="sans-serif" font-size="14" lengthAdjust="spacing" textLength="6" x="266.6338" y="236.8317">-</text><text fill="#000000" font-family="sans-serif" font-size="14" font-weight="bold" lengthAdjust="spacing" textLength="65" x="276.6338" y="236.8317">requiert</text><text fill="#000000" font-family="sans-serif" font-size="14" lengthAdjust="spacing" textLength="138" x="341.6338" y="236.8317">:pi&#232;ces disponibles</text></g><g id="elem_commanderPart"><ellipse cx="388.0737" cy="706.8729" fill="#F1F1F1" rx="127.0737" ry="30.3729" style="stroke:#181818;stroke-width:0.5;"/><text fill="#000000" font-family="sans-serif" font-size="14" lengthAdjust="spacing" textLength="130" x="309.5737" y="698.472">commander pi&#232;ce</text><line style="stroke:#181818;stroke-width:1.0;" x1="263.8036" x2="512.3438" y1="701.7738" y2="701.7738"/><text fill="#000000" font-family="sans-serif" font-size="14" lengthAdjust="spacing" textLength="6" x="288.5737" y="718.7689">-</text><text fill="#000000" font-family="sans-serif" font-size="14" font-weight="bold" lengthAdjust="spacing" textLength="65" x="298.5737" y="718.7689">requiert</text><text fill="#000000" font-family="sans-serif" font-size="14" lengthAdjust="spacing" textLength="93" x="363.5737" y="718.7689">:specif pi&#232;ce</text></g><g id="elem_commanderProduit"><ellipse cx="388.1555" cy="609.9311" fill="#F1F1F1" rx="145.1555" ry="31.4311" style="stroke:#181818;stroke-width:0.5;"/><text fill="#000000" font-family="sans-serif" font-size="14" lengthAdjust="spacing" textLength="143" x="302.9628" y="599.968">commander produit</text><line style="stroke:#181818;stroke-width:1.0;" x1="247.2974" x2="529.0137" y1="603.2698" y2="603.2698"/><text fill="#000000" font-family="sans-serif" font-size="14" lengthAdjust="spacing" textLength="6" x="263.9628" y="620.2649">-</text><text fill="#000000" font-family="sans-serif" font-size="14" font-weight="bold" lengthAdjust="spacing" textLength="65" x="273.9628" y="620.2649">requiert</text><text fill="#000000" font-family="sans-serif" font-size="14" lengthAdjust="spacing" textLength="142" x="338.9628" y="620.2649">:detail produit, etat</text></g><g id="elem_enregistrer"><ellipse cx="684.7655" cy="658.0531" fill="#F1F1F1" rx="65.7655" ry="15.5531" style="stroke:#181818;stroke-width:0.5;"/><text fill="#000000" font-family="sans-serif" font-size="14" lengthAdjust="spacing" textLength="81" x="641.2655" y="661.8007">enregistrer</text></g><!--entity admin--><g id="elem_admin"><ellipse cx="836" cy="628.5" fill="#FFFF00" rx="8" ry="8" style="stroke:#181818;stroke-width:0.5;"/><path d="M836,636.5 L836,663.5 M823,644.5 L849,644.5 M836,663.5 L823,678.5 M836,663.5 L849,678.5 " fill="none" style="stroke:#181818;stroke-width:0.5;"/><text fill="#000000" font-family="sans-serif" font-size="14" lengthAdjust="spacing" textLength="44" x="814" y="692.9951">admin</text></g><!--entity us--><g id="elem_us"><ellipse cx="49.5" cy="453.5" fill="#F1F1F1" rx="8" ry="8" style="stroke:#181818;stroke-width:0.5;"/><path d="M49.5,461.5 L49.5,488.5 M36.5,469.5 L62.5,469.5 M49.5,488.5 L36.5,503.5 M49.5,488.5 L62.5,503.5 " fill="none" style="stroke:#181818;stroke-width:0.5;"/><text fill="#000000" font-family="sans-serif" font-size="14" lengthAdjust="spacing" textLength="30" x="34.5" y="517.9951">user</text></g><!--entity rc--><g id="elem_rc"><ellipse cx="49.5" cy="190" fill="#D2B48C" rx="8" ry="8" style="stroke:#181818;stroke-width:0.5;"/><path d="M49.5,198 L49.5,225 M36.5,206 L62.5,206 M49.5,225 L36.5,240 M49.5,225 L62.5,240 " fill="none" style="stroke:#181818;stroke-width:0.5;"/><text fill="#000000" font-family="sans-serif" font-size="14" lengthAdjust="spacing" textLength="47" x="26" y="254.4951">Repair</text><text fill="#000000" font-family="sans-serif" font-size="14" lengthAdjust="spacing" textLength="33" x="30" y="270.792">Caf&#233;</text></g><!--entity pd--><g id="elem_pd"><ellipse cx="49.5" cy="892" fill="#008000" rx="8" ry="8" style="stroke:#181818;stroke-width:0.5;"/><path d="M49.5,900 L49.5,927 M36.5,908 L62.5,908 M49.5,927 L36.5,942 M49.5,927 L62.5,942 " fill="none" style="stroke:#181818;stroke-width:0.5;"/><text fill="#000000" font-family="sans-serif" font-size="14" lengthAdjust="spacing" textLength="85" x="7" y="956.4951">Mag. pi&#232;ces</text><text fill="#000000" font-family="sans-serif" font-size="14" lengthAdjust="spacing" textLength="75" x="11" y="972.792">d&#233;t&#226;ch&#233;es</text></g><!--entity di--><g id="elem_di"><ellipse cx="49.5" cy="732.5" fill="#00FFFF" rx="8" ry="8" style="stroke:#181818;stroke-width:0.5;"/><path d="M49.5,740.5 L49.5,767.5 M36.5,748.5 L62.5,748.5 M49.5,767.5 L36.5,782.5 M49.5,767.5 L62.5,782.5 " fill="none" style="stroke:#181818;stroke-width:0.5;"/><text fill="#000000" font-family="sans-serif" font-size="14" lengthAdjust="spacing" textLength="87" x="6" y="796.9951">Distributeur</text></g><!--reverse link enregistrer to admin--><g id="link_enregistrer_admin"><path d="M757.354,658 C779.873,658 797.524,658 813.909,658 " fill="none" id="enregistrer-backto-admin" style="stroke:#181818;stroke-width:1.0;"/><polygon fill="#181818" points="751.354,658,760.354,662,756.354,658,760.354,654,751.354,658" style="stroke:#181818;stroke-width:1.0;"/></g><!--reverse link enregistrerCafe to enregistrer--><g id="link_enregistrerCafe_enregistrer"><path d="M501.1848,136.1676 C528.1928,147.9346 538.892,157.225 558,180 C680.179,325.628 685.259,577.097 684.409,642.231 " fill="none" id="enregistrerCafe-backto-enregistrer" style="stroke:#181818;stroke-width:1.0;"/><polygon fill="none" points="484.683,128.978,498.7883,141.6682,503.5813,130.667,484.683,128.978" style="stroke:#181818;stroke-width:1.0;"/></g><!--link rc to enregistrerCafe--><g id="link_rc_enregistrerCafe"><path d="M73.1012,219.537 C118.267,202.625 216.227,165.945 292.098,137.535 " fill="none" id="rc-to-enregistrerCafe" style="stroke:#181818;stroke-width:1.0;"/><polygon fill="#181818" points="297.717,135.431,287.8858,134.8411,293.0345,137.1844,290.6912,142.333,297.717,135.431" style="stroke:#181818;stroke-width:1.0;"/></g><!--reverse link enregistrerPD to enregistrer--><g id="link_enregistrerPD_enregistrer"><path d="M515.4155,941.941 C536.5095,930.765 541.285,925.491 558,909 C630.196,837.772 668.253,716.59 679.986,673.651 " fill="none" id="enregistrerPD-backto-enregistrer" style="stroke:#181818;stroke-width:1.0;"/><polygon fill="none" points="499.51,950.368,518.2245,947.2428,512.6065,936.6391,499.51,950.368" style="stroke:#181818;stroke-width:1.0;"/></g><!--reverse link enregistrerPD to pd--><g id="link_enregistrerPD_pd"><path d="M249.1972,966.0198 C191.0872,955.4858 132.806,944.92 92.099,937.541 " fill="none" id="enregistrerPD-backto-pd" style="stroke:#181818;stroke-width:1.0;"/><polygon fill="#181818" points="255.101,967.09,246.9588,961.5488,250.1812,966.1982,245.5318,969.4205,255.101,967.09" style="stroke:#181818;stroke-width:1.0;"/></g><!--reverse link enregistrerDistri to enregistrer--><g id="link_enregistrerDistri_enregistrer"><path d="M502.4921,784.8124 C526.5331,773.7584 535.486,768.551 558,755 C599.629,729.945 643.573,693.493 666.972,673.157 " fill="none" id="enregistrerDistri-backto-enregistrer" style="stroke:#181818;stroke-width:1.0;"/><polygon fill="none" points="486.138,792.332,504.9986,790.2638,499.9856,779.3611,486.138,792.332" style="stroke:#181818;stroke-width:1.0;"/></g><!--reverse link enregistrerDistri to di--><g id="link_enregistrerDistri_di"><path d="M262.2818,806.056 C201.4238,793.396 136.977,779.989 93.118,770.866 " fill="none" id="enregistrerDistri-backto-di" style="stroke:#181818;stroke-width:1.0;"/><polygon fill="#181818" points="268.156,807.278,260.1593,801.5289,263.2608,806.2597,258.53,809.3612,268.156,807.278" style="stroke:#181818;stroke-width:1.0;"/></g><!--reverse link enregistrerUser to enregistrer--><g id="link_enregistrerUser_enregistrer"><path d="M489.407,524.693 C517.156,537.187 531.322,544.854 558,561 C599.567,586.157 643.534,622.571 666.954,642.873 " fill="none" id="enregistrerUser-backto-enregistrer" style="stroke:#181818;stroke-width:1.0;"/><polygon fill="none" points="472.994,517.303,486.9437,530.164,491.8704,519.222,472.994,517.303" style="stroke:#181818;stroke-width:1.0;"/></g><!--reverse link enregistrerUser to us--><g id="link_enregistrerUser_us"><path d="M278.916,483 C199.102,483 101.6595,483 64.5306,483 " fill="none" id="enregistrerUser-backto-us" style="stroke:#181818;stroke-width:1.0;"/><polygon fill="#181818" points="284.916,483,275.916,479,279.916,483,275.916,487,284.916,483" style="stroke:#181818;stroke-width:1.0;"/></g><!--link rc to analyserPanne--><g id="link_rc_analyserPanne"><path d="M73.1012,236.127 C117.898,252.235 214.5139,286.9767 290.2089,314.1957 " fill="none" id="rc-to-analyserPanne" style="stroke:#181818;stroke-width:1.0;"/><polygon fill="#181818" points="295.855,316.226,288.7394,309.4166,291.1499,314.5341,286.0324,316.9447,295.855,316.226" style="stroke:#181818;stroke-width:1.0;"/></g><!--link us to analyserPanne--><g id="link_us_analyserPanne"><path d="M64.686,474.111 C89.912,458.599 144.573,426.307 194,406 C219.53,395.511 241.9376,387.7963 268.6626,379.7523 " fill="none" id="us-to-analyserPanne" style="stroke:#181818;stroke-width:1.0;"/><polygon fill="#181818" points="274.408,378.023,264.637,376.7867,269.6202,379.4641,266.9428,384.4472,274.408,378.023" style="stroke:#181818;stroke-width:1.0;"/></g><!--link reparerPanne to analyserPanne--><g id="link_reparerPanne_analyserPanne"><path d="M388,258.66 C388,274.163 388,287.153 388,303.715 " fill="none" id="reparerPanne-to-analyserPanne" style="stroke:#181818;stroke-width:1.0;stroke-dasharray:7.0,7.0;"/><polygon fill="#181818" points="388,309.715,392,300.715,388,304.715,384,300.715,388,309.715" style="stroke:#181818;stroke-width:1.0;"/><text fill="#000000" font-family="sans-serif" font-size="13" lengthAdjust="spacing" textLength="61" x="346" y="288.8169">necessite</text></g><!--link commanderPart to analyserPanne--><g id="link_commanderPart_analyserPanne"><path d="M269.004,696.318 C241.89,689.093 214.937,677.486 194,659 C167.054,635.209 171.554,618.843 165,583.5 C153.207,519.91 120.871,487.405 194,406 C208.076,390.331 220.6943,381.2375 240.2113,372.8815 " fill="none" id="commanderPart-to-analyserPanne" style="stroke:#181818;stroke-width:1.0;stroke-dasharray:7.0,7.0;"/><polygon fill="#181818" points="245.727,370.52,235.8791,370.3851,241.1306,372.4879,239.0277,377.7394,245.727,370.52" style="stroke:#181818;stroke-width:1.0;"/><text fill="#000000" font-family="sans-serif" font-size="13" lengthAdjust="spacing" textLength="61" x="124" y="579.5669">necessite</text></g><!--link commanderProduit to analyserPanne--><g id="link_commanderProduit_analyserPanne"><path d="M243.961,606.172 C213.484,598.279 184.635,584.079 165,559.5 C150.65,541.537 96.3268,511.439 194,406 C208.433,390.42 221.3499,381.3499 241.1059,373.0249 " fill="none" id="commanderProduit-to-analyserPanne" style="stroke:#181818;stroke-width:1.0;stroke-dasharray:7.0,7.0;"/><polygon fill="#181818" points="246.635,370.695,236.788,370.5038,242.0274,372.6366,239.8946,377.876,246.635,370.695" style="stroke:#181818;stroke-width:1.0;"/><text fill="#000000" font-family="sans-serif" font-size="13" lengthAdjust="spacing" textLength="61" x="124" y="555.5669">necessite</text></g><!--link reparerPanne to commanderPart--><g id="link_reparerPanne_commanderPart"><path d="M269.952,244.359 C241.241,253.841 213.286,268.715 194,292 C105.274,399.121 155.143,438.701 165,528.5 C171.483,587.56 152.492,616.489 194,659 C213.331,678.798 233.6563,689.3406 260.4503,696.6466 " fill="none" id="reparerPanne-to-commanderPart" style="stroke:#181818;stroke-width:1.0;stroke-dasharray:7.0,7.0;"/><polygon fill="#181818" points="266.239,698.225,258.6083,691.9983,261.4151,696.9097,256.5037,699.7165,266.239,698.225" style="stroke:#181818;stroke-width:1.0;"/><text fill="#000000" font-family="sans-serif" font-size="13" lengthAdjust="spacing" textLength="61" x="124" y="524.5669">necessite</text></g><!--reverse link rc to reparerPanne--><g id="link_rc_reparerPanne"><path d="M79.1012,228 C114.983,228 181.733,228 248.168,228 " fill="none" id="rc-backto-reparerPanne" style="stroke:#181818;stroke-width:1.0;"/><polygon fill="#181818" points="73.1012,228,82.1012,232,78.1012,228,82.1012,224,73.1012,228" style="stroke:#181818;stroke-width:1.0;"/></g><!--link us to reparerPanne--><g id="link_us_reparerPanne"><path d="M64.5383,454.708 C86.5505,413.157 133.047,335.822 194,292 C221.086,272.527 248.7413,260.48 280.0883,250.796 " fill="none" id="us-to-reparerPanne" style="stroke:#181818;stroke-width:1.0;"/><polygon fill="#181818" points="285.821,249.025,276.0413,247.8597,281.0438,250.5008,278.4026,255.5033,285.821,249.025" style="stroke:#181818;stroke-width:1.0;"/></g><!--link pd to commanderPart--><g id="link_pd_commanderPart"><path d="M76.8222,883.412 C101.8581,843.362 143.192,787.129 194,755 C218.732,739.361 242.4204,730.2713 270.8334,723.1623 " fill="none" id="pd-to-commanderPart" style="stroke:#181818;stroke-width:1.0;"/><polygon fill="#181818" points="276.654,721.706,266.9523,720.0101,271.8035,722.9196,268.894,727.7709,276.654,721.706" style="stroke:#181818;stroke-width:1.0;"/></g><!--link us to commanderPart--><g id="link_us_commanderPart"><path d="M64.5701,521.145 C76.6767,550.047 96.4035,589.366 123,617 C162.876,658.431 216.7153,679.4469 269.2543,691.5139 " fill="none" id="us-to-commanderPart" style="stroke:#181818;stroke-width:1.0;"/><polygon fill="#181818" points="275.102,692.857,267.2258,686.9439,270.2289,691.7378,265.435,694.7409,275.102,692.857" style="stroke:#181818;stroke-width:1.0;"/></g><!--link di to commanderProduit--><g id="link_di_commanderProduit"><path d="M93.0564,724.935 C120.295,702.931 157.3,676.08 194,659 C219.935,646.929 243.4601,639.0415 271.2861,631.8645 " fill="none" id="di-to-commanderProduit" style="stroke:#181818;stroke-width:1.0;"/><polygon fill="#181818" points="277.096,630.366,267.3822,628.7405,272.2544,631.6148,269.3802,636.487,277.096,630.366" style="stroke:#181818;stroke-width:1.0;"/></g><!--link us to commanderProduit--><g id="link_us_commanderProduit"><path d="M64.5819,516.342 C76.4769,540.047 95.9261,570.352 123,586 C160.654,607.763 200.4945,616.3583 243.3315,619.0103 " fill="none" id="us-to-commanderProduit" style="stroke:#181818;stroke-width:1.0;"/><polygon fill="#181818" points="249.32,619.381,240.5844,614.8325,244.3296,619.072,240.09,622.8172,249.32,619.381" style="stroke:#181818;stroke-width:1.0;"/></g><!--SRC=[nLR1SjCm4BthAvRa4CZKuTuflRJfZPaE7MvSL6cJQB0bLP9XCi3FS2BVaHzZ9Jl5Sam1CzFuul7JxchV-krAinVMyNN5eUHRKmVm5GQkEIjn5I0OS6gz2I2LGn6KqOnn4Om3BYkb0QPRB4lpkGLhZxJYwTq2atTekN8VD5pnrNutYOjEm9HsW8F9MxvUW5Nx7m8z6ShzBko_Yyr-XpxPMmdJjKFyvN6jV73glWvOksGY5Kp5DiPaipSZ7cQv-CZN27TSOiMvkrC1ORfStjmibrzYrEAV7qR5kE8U0RN3TSmOtVksFfCEHfGjEc-qHaPUsbHdO1scD-MYIiQbG- -H2LDPAWvgAXIR3CMd8kD0V9T-0eZu2-8UXu0hNgcoHAeVqfP6rYfujZ6EZ2CuC_KdTA6cZyce2eohsn2ns-i1MbL7E4asl57D7ocIm8E7Sz1Ohm33QrE34OBxAEy903mZsG6kZRe7-CgEx4_4yNyeqb0fjzG0jvoadkWT4B2yLNy1yxd3XrgHxkRpSsb4NQ4ED1TULeReoHbMjZJg36W90egDLWyrdi5YiNX5l9wVLUmjroNbzhk4_9RKesALjqQh-_ZdJf8wpPEAQncJTo7b_eYqRJMGlRSerAfTFtNUZTZxgJVea9oeALHvCA3nIZro6WhTpaudMETxN3RVHfvy8zqw-S95KJIt0TO_YYw-5aL6ZSx-ehZi7raid_HzB-YlqxALx7Xa7crtR9ASwRgGnKp7ybFEoI2vqit62QAG3JFwhKTGDXSMb_dqYsEPHe2dMmRBk_3lB5lTFsNStp_R9ZCKaLVNlA6J8LOIaeLeZ798gWng-x1dsAAZPFSJ]--></g></svg>